<?xml version="1.0" encoding="UTF-8"?>
<svg id="Layer_2" data-name="Layer 2" xmlns="http://www.w3.org/2000/svg" viewBox="0 0 512 511.85">
  <defs>
    <style>
      .cls-1 {
        fill: #df5e27;
      }

      .cls-2 {
        fill: #fff;
      }
    </style>
  </defs>
  <g id="Layer_1-2" data-name="Layer 1">
    <g id="y7fkvN.tif">
      <g>
        <path class="cls-2" d="M0,115.62c3.56-9.81,10.71-17.54,21.49-18.97l235.95.07c8.85,1.38,8.83,14.47,0,15.85H24.45c-2.73-.89-8.45,3.26-8.45,5.55v234.04h480v-154.2c0-6.05,13.69-7.8,16-.5v199.61c-2.65,6.64-6.52,12.94-13.1,16.37-.85.45-6.06,2.59-6.4,2.59h-179.5l6.01,47.9c1.86,1.94,42.72-3.16,53.35,3.15,3.74,2.22,11.64,12.13,11.64,16.32v22.96c0,1.43-3.78,4.43-5,5.49h-246c-1.22-1.06-5-4.06-5-5.49v-22.96c0-4.89,8.1-14.08,12.47-16.5,12.22-6.79,38.26-1.02,52.52-2.97l6.01-47.9H19.5c-.35,0-5.55-2.15-6.4-2.59-6.58-3.43-10.45-9.73-13.1-16.37V115.62ZM496,368.13H16v26.45c0,2.28,5.73,6.44,8.45,5.54h463.1c2.73.9,8.45-3.25,8.45-5.54v-26.45ZM209,463.94h94l-6.01-47.9-81.42-.05-6.57,47.95ZM368,495.88c-.21-5.54,1.64-12.12-4.25-15.22l-212.27-.77c-9.03,1.05-7.56,8.95-7.48,15.99h224Z"/>
        <path class="cls-1" d="M512,147.56c-2.47,8.65-33,5.17-35,7.99-.45,1.73.73,1.99,1.49,2.99,3.38,4.41,16.97,18.6,17.49,22.54.16,1.24.13,2.47-.17,3.68l-37.43,38.52c-2.55,1.56-5.42,1.55-8.13.37-4.36-1.9-15.42-13.03-20.24-16.72-1-.76-1.26-1.94-3-1.49-4.05,10.01,2.66,33.7-11.46,34.97-15.75,1.42-33.84-.97-49.83-.26-2.56-.57-4.9-2.93-5.5-5.49-.96-4.1-1.99-28.36-3.22-29.23-1.73-.45-2,.73-3,1.49-4.49,3.43-18.41,16.91-22.58,17.45-1.24.16-2.47.13-3.69-.17l-38.59-37.36c-1.57-2.54-1.55-5.41-.37-8.11,1.9-4.35,13.06-15.39,16.75-20.2.76-.99,1.94-1.26,1.49-2.99-10.03-4.04-33.77,2.66-35.04-11.44-1.06-11.79-1.07-35.22,0-47,.31-3.44,1.24-6.85,4.99-7.99,4.32-1.32,29.12-2.13,30.05-3.45.45-1.73-.73-1.99-1.49-2.99-3.69-4.81-14.85-15.86-16.75-20.2-2.04-4.67-.48-6.81,2.22-10.25,5.16-6.57,26.5-28.11,33-32.93,2.61-1.94,3.86-2.92,7.43-2.45,4.17.54,18.09,14.02,22.58,17.45,1,.76,1.26,1.94,3,1.49,4.05-10.05-2.66-33.7,11.46-34.97,11.81-1.07,35.28-1.06,47.1,0,4.07.37,7.03,1.41,8.23,5.76s1.91,28.28,3.24,29.21c1.73.45,2-.73,3-1.49,4.83-3.68,15.88-14.82,20.24-16.72,2.71-1.18,5.58-1.19,8.13.37,5.47,7.22,36.04,32.23,37.43,38.52.27,1.24.34,2.42.17,3.68-.51,3.94-14.11,18.13-17.49,22.54-.76.99-1.94,1.26-1.49,2.99,2,2.83,32.52-.66,35,7.99v53.89ZM409,16.81h-34c-1.58,11.21-1,24.4-3.09,35.34-1.42,7.41-6.37,9.32-13.29,6.45l-28.3-22.69-23.18,23.14c.22,1.01.88,1.77,1.42,2.61,4.58,7.09,19.06,19.89,21.68,26.27,2.82,6.86.2,11.32-6.84,12.63-10.94,2.05-24.2,1.66-35.41,3.08v33.93c11.2,1.44,24.5,1.02,35.41,3.08,6.74,1.27,9.56,6.06,6.83,12.63-2.55,6.14-17.16,19.27-21.68,26.26-.54.84-1.2,1.59-1.42,2.61l23.18,23.14,28.3-22.69c3.59-2.05,9.48-1.69,11.82,1.93l4.56,39.86h34c1.58-11.21,1-24.4,3.09-35.34,1.42-7.41,6.37-9.32,13.29-6.45l28.3,22.69,23.18-23.14c-4.18-10.9-38.74-34.36-16.27-41.51l35.41-3.08v-33.93c-11.44-1.49-24.14-1.34-35.41-3.08-7.36-1.14-9.35-6.67-6.46-13.26l22.73-28.24-21.88-22.83c-1.52-.82-2.73.31-3.91,1.11-8.8,5.88-17.25,15.65-26.31,21.64-6.58,2.22-11.57.29-12.66-6.82-1.74-11.27-1.6-23.92-3.09-35.34Z"/>
        <path class="cls-2" d="M216,166.52c-24.36-7.52-19.15-43.59,5.49-45.92,27.9-2.63,37.08,36.54,10.47,46.58-1.28,8.1,2.48,32.57-1.48,38.24-.53.75-3.42,3.01-3.98,3.01h-50.5v15.97h66c10.74-30.42,55.65-13.04,44.28,16.75-7.76,20.34-37.74,20.24-44.28-.78h-66v15.97h50.5c.56,0,3.46,2.26,3.98,3.01,3.96,5.67.2,30.14,1.48,38.24,20.28,7.57,21.72,36.05,1.56,44.6-29.62,12.57-48.6-33.06-17.52-43.94v-25.95h-40v26.45c0,1.89-5.02,6.1-7.48,5.51-41.22-2.86-87.44,3.72-128.07.03-3.87-.35-6.38-1.13-8-4.99v-133.84c1.62-3.85,4.13-4.63,8-4.99,40.33-3.67,86.18,2.88,127.1,0,2.73-.9,8.45,3.25,8.45,5.54v26.45h40v-25.95ZM221.73,136.78c-9.21,2-7.17,18.13,4.55,15.58,9.21-2,7.17-18.13-4.55-15.58ZM160,176.5H48v111.78h112v-111.78ZM261.73,224.61c-9.21,2-7.17,18.13,4.55,15.58,9.21-2,7.17-18.13-4.55-15.58ZM221.73,312.43c-9.21,2-7.17,18.13,4.55,15.58,9.21-2,7.17-18.13-4.55-15.58Z"/>
        <rect class="cls-2" x="328" y="272.32" width="96" height="15.97"/>
        <rect class="cls-2" x="360" y="304.25" width="96" height="15.97"/>
        <rect class="cls-1" x="440" y="272.32" width="16" height="15.97"/>
        <rect class="cls-1" x="328" y="304.25" width="16" height="15.97"/>
        <path class="cls-1" d="M221.73,136.78c11.72-2.55,13.75,13.57,4.55,15.58-11.72,2.55-13.75-13.57-4.55-15.58Z"/>
        <path class="cls-1" d="M261.73,224.61c11.72-2.55,13.75,13.57,4.55,15.58-11.72,2.55-13.75-13.57-4.55-15.58Z"/>
        <path class="cls-1" d="M221.73,312.43c11.72-2.55,13.75,13.57,4.55,15.58-11.72,2.55-13.75-13.57-4.55-15.58Z"/>
        <path class="cls-1" d="M385.78,72.98c58.58-7.05,75.57,77.54,19.75,93.57-66.54,19.11-86.14-85.58-19.75-93.57ZM387.78,88.96c-39.68,4.67-35.2,66.17,6.7,63.57,41.79-2.59,37.5-68.77-6.7-63.57Z"/>
        <path class="cls-1" d="M100.89,248.48h-25.77c-1.83,4.82-2.93,14.37-8.84,15.65-6.68,1.45-11.52-3.52-10.06-10.04,9.67-19.64,14.56-45.56,24.27-64.63,3.32-6.51,10.87-7.02,14.72-.7l24.58,65.33c1.46,6.58-3.42,11.48-10.06,10.04-5.91-1.29-7.01-10.84-8.84-15.65ZM88.99,216.42c-2.6-.46-1.54.38-2.08,1.42-.81,1.58-5.46,14.02-4.91,14.55h11.99l-5.01-15.97Z"/>
        <path class="cls-2" d="M133.73,184.68c5.56-1.21,9.64,1.72,10.3,7.27,2.38,20.25-1.77,45.08-.08,65.83-1.45,9.27-15.42,8.65-15.96-.92,1.8-20.52-2.33-44.88,0-64.92.4-3.42,2.17-6.49,5.75-7.27Z"/>
      </g>
    </g>
  </g>
</svg>