<?xml version="1.0" encoding="UTF-8"?>
<svg id="Layer_2" data-name="Layer 2" xmlns="http://www.w3.org/2000/svg" viewBox="0 0 1155.95 314.06">
  <defs>
    <style>
      .cls-1 {
        fill: #fff;
      }
    </style>
  </defs>
  <g id="Layer_1-2" data-name="Layer 1">
    <g>
      <g id="exgEE8.tif1">
        <g>
          <path class="cls-1" d="M.1,149.02v-8.42c6.24-26.84,45.85-22.48,44.76,5.25-.99,26.15-39.02,28.72-44.76,3.07v.1ZM20.2,133.87c-13.67,2.18-10.89,24.76,4.56,21.99,13.37-2.38,11.09-24.56-4.56-21.99Z"/>
          <path class="cls-1" d="M262.94,27.5c12.78.69,35.45-4.65,38.82,13.27,1.19,6.54,1.19,32.58.3,39.42-.79,5.94-5.74,11.39-11.19,13.47-.89,6.14,4.06,27.53-8.12,22.78l-32.29-21.49c-13.67-1.49-33.18,4.56-37.04-13.57-.79-.2-1.39,0-2.08.4-5.15,2.08-13.96,11.09-18.82,12.58-11.79,3.57-6.64-16.84-7.72-22.98-5.84-2.28-10.5-7.72-11.19-14.06-.89-8.02-.99-29.81,0-37.63.89-7.13,7.82-13.67,14.95-14.36,18.62,1.88,42.68-2.57,60.61.2,10.2,1.58,15.35,12.68,13.77,22.18h0v-.2ZM251.75,27.5c0-4.56,1.09-10-4.56-11.09-18.22,1.19-38.62-1.68-56.65,0-3.57.3-5.45,1.49-5.94,5.25-.79,6.44-.89,28.72,0,34.86.99,6.54,11.09,3.47,11.09,8.42v13.67l16.44-11.19c2.18-12.08-4.16-27.73,7.03-36.35,1.19-.89,5.84-3.47,6.93-3.47h25.55l.1-.1ZM251.75,38.69h-24.16c-.79,0-3.86,2.97-3.86,3.86v18.52h24.16c.79,0,3.86-2.97,3.86-3.86v-18.52ZM279.67,100.89v-13.67c0-4.95,10.1-1.88,11.09-8.42.89-5.45.89-30.01,0-35.55-.2-1.58-2.38-4.56-3.76-4.56h-24.16v19.91c0,.99-2.38,5.45-3.17,6.54-8.42,11.79-23.57,4.85-35.55,7.63-.89,2.87-.99,7.63,1.68,9.51,4.16,2.97,22.08-.3,27.93,1.39l25.85,17.13h0l.1.1Z"/>
          <path class="cls-1" d="M28.03,89c-7.82.3-15.75-6.73-16.74-14.36-.99-7.63-.99-30.8,0-38.33.89-7.13,7.82-13.67,14.95-14.36,22.48,1.78,48.63-2.38,70.61,0,7.53.79,14.16,7.43,15.05,15.05.89,8.32.89,28.72,0,37.04-2.28,21.19-29.22,13.47-43.38,15.35-10.2,4.95-21.99,16.93-31.89,21.19-12.48,5.45-7.82-15.15-8.62-21.49v-.1ZM39.22,95.24l26.34-17.33c9.51-1.09,20.6.89,29.91-.1,3.17-.4,4.85-1.98,5.25-5.25.89-7.63.69-25.75,0-33.57-.3-3.47-1.49-5.45-5.25-5.94-21.59,1.49-45.85-1.98-67.15,0-3.57.3-5.45,1.49-5.94,5.25-1.29,10.99.69,24.76.3,36.05,2.38,5.84,9.21,2.08,13.47,3.96.89.4,2.97,2.57,2.97,3.27v13.67h.1Z"/>
          <path class="cls-1" d="M309.58,122.68c30.6-4.46,35.36,41.1,6.73,44.47-29.81,3.57-34.56-40.41-6.73-44.47ZM310.97,133.87c-13.67,2.18-10.89,24.76,4.56,21.99,13.37-2.38,11.09-24.56-4.56-21.99Z"/>
          <path class="cls-1" d="M164.2,111.48c30.7-4.46,35.16,41.2,6.73,44.47-29.91,3.37-34.46-40.41-6.73-44.47h0ZM165.59,122.68c-13.67,2.18-10.89,24.76,4.56,21.99,13.37-2.38,11.09-24.56-4.56-21.99Z"/>
          <path class="cls-1" d="M329.98,251.03c0-.4,4.75.4,5.55-4.56-1.19-18.62,1.78-39.61,0-57.94-.89-10.2-10.2-17.23-20.3-15.35-5.65,1.09-8.12,4.65-12.28,7.23-4.16,2.57-21.49,13.86-24.56,14.66-5.74,1.49-20.5-1.58-24.66,1.19-.5.4-2.08,2.38-2.08,2.77v12.97h-11.88l-5.25-30.01c-2.18-5.55-10.5-4.36-10.89,1.78l4.26,28.32h-16.04c-3.17-11.09-.69-30.8-9.8-38.82-2.28-1.98-18.82-10.79-21.49-11.39-3.96-.79-19.21-.59-23.67-.2-3.07.3-18.52,7.82-21.49,9.9-11.39,7.82-8.22,28.32-11.69,40.41h-16.04l4.26-28.32c-.4-6.14-8.72-7.33-10.89-1.78l-5.25,30.01h-11.88v-12.97c0-.4-1.58-2.38-2.08-2.77-4.06-2.87-18.92.2-24.66-1.19-3.07-.79-20.4-12.08-24.56-14.66-2.38-1.49-4.56-4.06-7.23-5.35-11.29-5.55-21.29-.2-25.35,11.09v72.69c1.49,2.38,3.07,3.07,5.64,3.96v38.72H0v11.19h335.43v-11.19h-5.55v-50.31h0l.1-.1ZM16.93,301.33v-34.96c5.94,1.98,12.28,3.47,17.83,6.34l8.02,28.62h-25.85ZM67.24,267.86l-6.93-20.6-26.54-15.75v-16.04c2.67.59,13.57,7.72,15.05,7.72h18.52v44.76l-.1-.1ZM72.79,211.91h-21.29c-1.78,0-17.43-9.8-21.29-10.89-4.06-1.09-7.23.59-7.72,4.85-.59,5.55-.79,24.07,0,29.31.2,1.49.89,2.67,2.08,3.47l26.84,16.44,13.67,46.05h-10.5l-11.19-37.44-31.89-11.49v-65.07c4.85-7.63,9.01-1.58,13.47,1.29,3.47,2.18,27.53,17.63,29.22,17.63h18.52v5.55h0l.1.3ZM140.83,181.4c.69-.59,16.04-8.22,17.03-8.42,3.27-.69,14.46-.59,18.02-.2,3.27.3,18.72,7.82,20.2,10.6l4.56,28.62h-10.5v-24.07c0-2.28-3.86-3.66-5.94-3.86-10.89-.99-23.17.79-34.27,0-1.49-.2-4.56,2.67-4.56,3.76v24.07h-10.5c2.08-5.64,2.18-27.23,5.84-30.5h.1ZM89.63,301.33h-11.19v-55.86h11.19v55.86ZM100.72,301.33v-55.86h33.57c-.99,9.61,7.23,13.86,11.79,20.8l4.36,35.16h-49.62l-.1-.1ZM179.35,260.14l-5.65,41.3h-12.18l-5.25-41.3c-1.58-4.65-11.49-8.52-10.89-14.66h44.76c2.67,2.67-10,11.88-10.89,14.66h.1ZM234.91,301.33h-49.62l4.36-35.16c4.56-6.93,12.78-11.09,11.79-20.8h33.57v55.86h0l-.1.1ZM257.29,301.33h-11.19v-55.86h11.19v55.86ZM257.29,234.29H78.34v-11.19h178.96v11.19h0ZM268.48,301.33v-22.38l12.58,22.38h-12.58ZM318.79,301.33h-12.58l-8.42-35.85,21-8.81v44.66h0ZM286.61,258.35l-1.29,2.28,9.61,40.7-24.46-42.88,41.59-26.24c.79-.89.99-1.98,1.09-3.07.5-4.56.59-19.31,0-23.77-.59-3.57-3.76-5.15-7.13-4.46-4.16.79-19.71,10.99-21.79,10.99h-21.29v-5.55c5.25-.79,13.67,1.09,18.52,0,2.08-.5,25.45-15.15,29.22-17.63,4.36-2.77,8.12-8.62,13.27-1.78l.4,54.87-37.63,16.54h-.1ZM268.48,246.17v-23.08h18.52c1.49,0,12.38-7.13,15.05-7.72v10.1l-33.57,20.6h0v.1Z"/>
          <rect class="cls-1" x="78.44" y="49.88" width="11.19" height="11.19"/>
          <rect class="cls-1" x="56.05" y="49.88" width="11.19" height="11.19"/>
          <rect class="cls-1" x="33.67" y="49.88" width="11.19" height="11.19"/>
        </g>
      </g>
      <g>
        <path class="cls-1" d="M490.18,216.06v-13.13l24.77-2.69-18.2-53.72h-87.14l-17.91,53.72,24.17,2.69v13.13h-61.78v-13.13l12.83-3.28c3.58-.9,5.97-2.09,7.16-5.67L440.05,0h27.46l67.45,194.58c1.19,3.58,3.28,4.18,6.86,5.07l13.73,3.28v13.13h-65.36ZM453.48,16.41l-37.9,112.51h75.5l-37.6-112.51Z"/>
        <path class="cls-1" d="M579.71,216.06v-13.13l21.79-2.09c4.18-.6,4.78-1.49,4.78-5.97V21.19c0-4.48-.6-5.67-4.78-5.97l-21.79-2.09V0h74.31v13.13l-22.98,2.39c-4.48.6-4.77,1.19-4.77,5.67v173.39c0,4.78.3,5.37,4.77,5.97l22.98,2.39v13.13h-74.31Z"/>
      </g>
      <g>
        <path class="cls-1" d="M351.12,312.62v-11.16l7.56-.84c1.68-.24,1.92-.6,1.92-2.4v-57.84c0-1.8-.24-2.28-1.92-2.4l-7.56-.84v-11.4h43.08c20.52,0,26.52,9.36,26.52,21.24s-7.32,17.76-14.64,20.16v.36c13.68,1.56,19.8,9,19.8,21,0,17.76-14.28,24.12-33.12,24.12h-41.64ZM384.95,261.15c8.04,0,14.16-1.56,14.16-10.2,0-9.12-6.36-9.48-12.36-9.48h-3.24v19.68h1.44ZM388.55,297.15c8.52,0,13.56-2.52,13.56-11.28s-5.64-10.56-12.12-10.56h-6.48v21.84h5.04Z"/>
        <path class="cls-1" d="M430.8,269.79c0-25.8,14.4-45.6,43.56-45.6s41.52,19.8,41.52,43.92c0,28.08-13.92,45.96-43.2,45.96s-41.88-18.48-41.88-44.28ZM492.23,269.19c0-19.44-6.84-27-18-27s-19.68,7.8-19.68,27.12,7.56,26.76,19.08,26.76c10.92,0,18.6-6.36,18.6-26.88Z"/>
        <path class="cls-1" d="M565.91,312.62v-11.16l9.72-1.08-3-8.52h-27.48l-2.88,8.52,9.36,1.08v11.16h-37.2v-11.16l5.4-1.32c1.44-.36,2.52-.84,3-2.28l26.16-72.12h25.68l25.68,72.36c.48,1.44,1.44,1.68,2.88,2.04l5.64,1.32v11.16h-42.96ZM559.91,249.15h-1.2l-9.24,27.24h19.08l-8.64-27.24Z"/>
        <path class="cls-1" d="M662.15,312.62l-9.96-29.04c-1.44-4.32-2.88-5.64-6.72-5.64h-1.2v19.92c0,1.92.12,2.16,1.92,2.4l6.84.96v11.4h-41.16v-11.4l7.56-.84c1.68-.12,1.92-.6,1.92-2.4v-57.72c0-1.8-.24-2.16-1.92-2.4l-7.56-.84v-11.28h43.44c21.6,0,28.32,11.16,28.32,23.52s-6.12,19.08-15.24,23.64c3.12,1.56,5.4,5.16,7.08,9.72l5.4,14.4c.72,1.92,1.44,2.64,3.84,3l7.44,1.2v11.4h-30ZM646.55,263.19c6.84,0,13.44-1.2,13.44-11.64,0-7.44-3.48-10.08-11.64-10.08h-4.08v21.72h2.28Z"/>
        <path class="cls-1" d="M695.27,312.62v-11.4l7.56-.84c1.68-.12,1.92-.6,1.92-2.4v-57.72c0-1.8-.24-2.16-1.92-2.4l-7.56-.84v-11.28h40.68c30.12,0,43.08,16.2,43.08,42.12s-14.04,44.76-45.12,44.76h-38.64ZM730.91,297.15c20.04,0,24.72-12.24,24.72-28.56,0-19.2-6.24-27.24-24-27.24h-3.84v55.8h3.12Z"/>
        <path class="cls-1" d="M834.71,312.62l-9.96-29.04c-1.44-4.32-2.88-5.64-6.72-5.64h-1.2v19.92c0,1.92.12,2.16,1.92,2.4l6.84.96v11.4h-41.16v-11.4l7.56-.84c1.68-.12,1.92-.6,1.92-2.4v-57.72c0-1.8-.24-2.16-1.92-2.4l-7.56-.84v-11.28h43.44c21.6,0,28.32,11.16,28.32,23.52s-6.12,19.08-15.24,23.64c3.12,1.56,5.4,5.16,7.08,9.72l5.4,14.4c.72,1.92,1.44,2.64,3.84,3l7.44,1.2v11.4h-30ZM819.11,263.19c6.84,0,13.44-1.2,13.44-11.64,0-7.44-3.48-10.08-11.64-10.08h-4.08v21.72h2.28Z"/>
        <path class="cls-1" d="M864.11,269.79c0-25.8,14.4-45.6,43.56-45.6s41.52,19.8,41.52,43.92c0,28.08-13.92,45.96-43.2,45.96s-41.88-18.48-41.88-44.28ZM925.55,269.19c0-19.44-6.84-27-18-27s-19.68,7.8-19.68,27.12,7.56,26.76,19.08,26.76c10.92,0,18.6-6.36,18.6-26.88Z"/>
        <path class="cls-1" d="M954.11,269.79c0-25.8,14.4-45.6,43.56-45.6s41.52,19.8,41.52,43.92c0,28.08-13.92,45.96-43.2,45.96s-41.88-18.48-41.88-44.28ZM1015.55,269.19c0-19.44-6.84-27-18-27s-19.68,7.8-19.68,27.12,7.56,26.76,19.08,26.76c10.92,0,18.6-6.36,18.6-26.88Z"/>
        <path class="cls-1" d="M1112.27,312.62v-11.16l9.84-.84c1.68-.12,1.92-.72,1.92-2.4v-36.96h-.72l-13.56,36h-23.88l-13.44-36.24h-.72v37.08c0,1.92.12,2.28,1.92,2.4l10.2.96v11.16h-39.24v-11.16l7.56-.84c1.68-.12,1.92-.6,1.92-2.4v-57.96c0-1.8-.24-2.16-1.92-2.4l-7.56-.84v-11.28h36.6l18.96,53.16h.84l19.32-53.16h35.64v11.16l-8.04.96c-1.8.24-1.92.48-1.92,2.28v58.08c0,1.56.36,2.16,1.92,2.28l8.04.96v11.16h-43.68Z"/>
      </g>
    </g>
  </g>
</svg>