<?xml version="1.0" encoding="UTF-8"?>
<svg id="Layer_2" data-name="Layer 2" xmlns="http://www.w3.org/2000/svg" viewBox="0 0 1034.33 311.15">
  <defs>
    <style>
      .cls-1 {
        fill: #fff;
      }
    </style>
  </defs>
  <g id="Layer_1-2" data-name="Layer 1">
    <g>
      <g id="exgEE8.tif">
        <g>
          <path class="cls-1" d="M0,146.09v-8.46c6.3-27.13,46.29-22.65,45.19,5.32-1.04,26.45-39.39,28.99-45.19,3.14ZM20.28,130.74c-13.81,2.23-10.97,25.04,4.61,22.24,13.53-2.43,11.25-24.8-4.61-22.24Z"/>
          <path class="cls-1" d="M265.33,23.35c12.93.71,35.79-4.67,39.2,13.37,1.24,6.58,1.17,32.88.26,39.83-.78,5.97-5.75,11.47-11.27,13.55-.89,6.19,4.07,27.75-8.23,22.99l-32.62-21.7c-13.8-1.54-33.46,4.62-37.44-13.73-.81-.15-1.37.08-2.09.37-5.24,2.11-14.09,11.22-19.04,12.71-11.91,3.59-6.74-16.98-7.75-23.22-5.87-2.27-10.65-7.8-11.34-14.19-.87-8.07-.97-30.13.06-38.04.95-7.22,7.93-13.75,15.11-14.53,18.81,1.93,43.07-2.64,61.23.17,10.31,1.59,15.53,12.76,13.93,22.41ZM254.05,23.35c.03-4.58,1.09-10.1-4.63-11.24-18.39,1.19-39.04-1.72-57.15-.08-3.61.33-5.54,1.51-5.98,5.31-.76,6.51-.92,29.03.06,35.24,1.03,6.56,11.25,3.53,11.25,8.51v13.76l16.59-11.28c2.18-12.15-4.2-28.04,7.07-36.67,1.23-.94,5.86-3.55,7.04-3.55h25.76ZM254.05,34.63h-24.35c-.83,0-3.88,3.05-3.88,3.88v18.69h24.35c.83,0,3.88-3.05,3.88-3.88v-18.69ZM282.27,97.41v-13.76c0-4.98,10.22-1.95,11.25-8.51.87-5.53.87-30.35,0-35.89-.25-1.58-2.37-4.63-3.84-4.63h-24.35v20.1c0,.99-2.43,5.51-3.24,6.64-8.51,11.91-23.76,4.95-35.87,7.74-.9,2.95-.96,7.66,1.72,9.59,4.18,3,22.28-.28,28.24,1.4l26.08,17.31Z"/>
          <path class="cls-1" d="M28.22,85.42c-7.93.27-15.86-6.79-16.87-14.52s-.99-31.13,0-38.68c.95-7.22,7.93-13.75,15.11-14.53,22.66,1.81,49.08-2.41,71.28,0,7.64.83,14.35,7.52,15.17,15.17.91,8.42.91,28.98,0,37.4-2.31,21.4-29.48,13.56-43.79,15.48-10.34,5.01-22.18,17.05-32.18,21.43-12.58,5.51-7.89-15.33-8.72-21.75ZM39.52,91.77l26.61-17.49c9.6-1.1,20.81.95,30.21-.13,3.24-.37,4.91-2.03,5.29-5.29.9-7.73.74-26,.02-33.91-.32-3.54-1.46-5.53-5.31-5.98-21.84,1.52-46.27-1.97-67.8-.02-3.64.33-5.54,1.54-5.98,5.31-1.3,11.07.74,25.03.33,36.38,2.38,5.89,9.26,2.14,13.62,4.02.89.38,3,2.64,3,3.35v13.76Z"/>
          <path class="cls-1" d="M312.45,119.46c30.86-4.48,35.66,41.45,6.8,44.88-30.14,3.58-34.85-40.81-6.8-44.88ZM313.85,130.74c-13.81,2.23-10.97,25.04,4.61,22.24,13.53-2.43,11.25-24.8-4.61-22.24Z"/>
          <path class="cls-1" d="M165.67,108.18c30.99-4.5,35.52,41.61,6.8,44.88-30.16,3.43-34.82-40.81-6.8-44.88ZM167.06,119.45c-13.81,2.23-10.97,25.04,4.61,22.24,13.53-2.43,11.25-24.8-4.61-22.24Z"/>
          <path class="cls-1" d="M333.08,249.07c0-.39,4.82.38,5.6-4.63-1.22-18.84,1.76-39.98.07-58.54-.94-10.32-10.33-17.44-20.53-15.52-5.66,1.06-8.16,4.67-12.44,7.32-4.18,2.59-21.66,13.98-24.75,14.76-5.79,1.46-20.74-1.63-24.87,1.24-.53.37-2.13,2.42-2.13,2.81v13.05h-12l-5.28-30.34c-2.19-5.59-10.6-4.4-11,1.79l4.28,28.55h-16.23c-3.24-11.24-.73-31.15-9.87-39.16-2.27-1.99-19.03-10.93-21.69-11.47-4.04-.83-19.35-.64-23.87-.19-3.11.31-18.68,7.94-21.72,10.03-11.51,7.87-8.27,28.6-11.76,40.8h-16.23l4.28-28.55c-.39-6.19-8.8-7.38-11-1.79l-5.28,30.34h-12v-13.05c0-.39-1.6-2.44-2.13-2.81-4.12-2.87-19.08.22-24.87-1.24-3.09-.78-20.57-12.18-24.75-14.76-2.36-1.46-4.6-4.06-7.3-5.4C14.22,166.66,4.14,172.13,0,183.47v73.36c1.53,2.4,3.11,3.06,5.69,3.96l-.04,39.08H0S0,311.15,0,311.15h338.73v-11.29s-5.65,0-5.65,0v-50.79ZM16.94,299.86v-35.27c5.98,2,12.41,3.46,17.97,6.38l8.14,28.89h-26.11ZM67.75,266l-7.04-20.83-26.83-15.86v-16.22c2.68.6,13.71,7.76,15.17,7.76h18.7v45.15ZM73.39,209.57h-21.52c-1.82,0-17.56-9.89-21.5-10.96-4.14-1.12-7.29.65-7.8,4.94-.65,5.57-.78,24.27.06,29.6.23,1.47.9,2.66,2.11,3.54l27.11,16.64,13.79,46.53h-10.59l-11.27-37.76-32.16-11.59v-65.67c4.91-7.69,9.06-1.57,13.56,1.32,3.49,2.24,27.79,17.76,29.51,17.76h18.7v5.64ZM142.06,178.75c.71-.65,16.19-8.31,17.23-8.52,3.31-.68,14.57-.55,18.22-.19,3.32.33,18.91,7.9,20.37,10.67l4.64,28.87h-10.59v-24.34c0-2.33-3.95-3.73-5.96-3.91-10.96-.99-23.44.77-34.57.08-1.51-.18-4.63,2.72-4.63,3.84v24.34h-10.59c2.09-5.69,2.2-27.46,5.86-30.82ZM90.33,299.86h-11.29v-56.43h11.29v56.43ZM101.62,299.86v-56.43h33.87c-1,9.73,7.27,13.97,11.85,20.96l4.38,35.48h-50.1ZM180.98,258.21l-5.66,41.68-12.3-.03-5.27-41.64c-1.63-4.71-11.59-8.64-10.97-14.78h45.16c2.69,2.68-10.1,12.01-10.97,14.78ZM237.11,299.86h-50.1l4.38-35.48c4.58-6.99,12.85-11.22,11.85-20.96h33.87v56.43ZM259.69,299.86h-11.29v-56.43h11.29v56.43ZM259.69,232.14H79.04v-11.29h180.66v11.29ZM270.98,299.86v-22.57l12.7,22.57h-12.7ZM321.79,299.86h-12.7l-8.51-36.21,21.22-8.94v45.15ZM289.31,256.46l-1.26,2.3,9.74,41.1-24.74-43.33,42.02-26.51c.78-.93.95-1.98,1.09-3.14.54-4.64.64-19.52-.06-23.96-.57-3.62-3.75-5.16-7.2-4.48-4.23.84-19.86,11.14-22.04,11.14h-21.52v-5.64c5.32-.8,13.82,1.08,18.7,0,2.08-.46,25.74-15.34,29.51-17.76,4.37-2.81,8.18-8.73,13.35-1.81l.42,55.44-38.01,16.67ZM270.98,244.14v-23.28h18.7c1.46,0,12.49-7.16,15.17-7.76v10.23l-33.87,20.81Z"/>
          <rect class="cls-1" x="79.04" y="45.92" width="11.29" height="11.29"/>
          <rect class="cls-1" x="56.45" y="45.92" width="11.29" height="11.29"/>
          <rect class="cls-1" x="33.87" y="45.92" width="11.29" height="11.29"/>
        </g>
      </g>
      <g>
        <path class="cls-1" d="M358.8,188.46l33.67-136.47h44.03l33.87,136.47h-22.31l-7.37-29.29h-52.4l-7.37,29.29h-22.11ZM409.6,70.52l-16.93,69.13h43.63l-16.73-69.13h-9.96Z"/>
        <path class="cls-1" d="M489.89,188.46V51.99h22.11v136.47h-22.11Z"/>
        <path class="cls-1" d="M365.08,220.72h33.78c9.09,0,15.89,1.84,20.4,5.52,4.5,3.68,6.76,9.55,6.76,17.61,0,5.28-.84,9.44-2.53,12.47-1.69,3.03-4.35,5.54-7.99,7.54,8.49,3.29,12.73,10.18,12.73,20.66,0,16.81-9.44,25.21-28.32,25.21h-34.82v-89ZM398.08,233.19h-18.58v25.47h19.1c8.49,0,12.73-4.37,12.73-13.12,0-8.23-4.42-12.34-13.25-12.34ZM398.86,270.87h-19.36v26.38h19.62c4.76,0,8.34-1,10.72-2.99,2.38-1.99,3.57-5.41,3.57-10.26s-1.39-8.25-4.16-10.2c-2.77-1.95-6.24-2.92-10.39-2.92Z"/>
        <path class="cls-1" d="M446.48,251.77c4.46-5.63,11.89-8.45,22.28-8.45s17.82,2.82,22.28,8.45c4.46,5.63,6.69,14.08,6.69,25.34s-2.17,19.75-6.5,25.47c-4.33,5.72-11.82,8.57-22.48,8.57s-18.15-2.86-22.48-8.57c-4.33-5.72-6.5-14.21-6.5-25.47s2.23-19.7,6.69-25.34ZM457.07,294c1.99,3.46,5.89,5.2,11.69,5.2s9.7-1.73,11.69-5.2c1.99-3.46,2.99-9.14,2.99-17.02s-1.06-13.47-3.18-16.76c-2.12-3.29-5.96-4.94-11.5-4.94s-9.38,1.65-11.5,4.94c-2.12,3.29-3.18,8.88-3.18,16.76s.99,13.56,2.99,17.02Z"/>
        <path class="cls-1" d="M559.84,264.77v29.62c.08,1.91.58,3.31,1.49,4.22s2.32,1.49,4.22,1.75l-.39,10.78c-7.45,0-13.21-1.6-17.28-4.81-6.93,3.21-13.9,4.81-20.92,4.81-12.91,0-19.36-6.89-19.36-20.66,0-6.58,1.75-11.35,5.26-14.29,3.51-2.94,8.9-4.72,16.18-5.33l16.76-1.43v-4.68c0-3.46-.76-5.89-2.27-7.28-1.52-1.38-3.75-2.08-6.69-2.08-5.54,0-12.47.35-20.79,1.04l-4.16.26-.52-10c9.44-2.25,18.12-3.38,26.05-3.38s13.64,1.71,17.15,5.13c3.51,3.42,5.26,8.86,5.26,16.31ZM530.74,280.88c-5.98.52-8.96,3.77-8.96,9.74s2.64,8.96,7.93,8.96c4.33,0,8.92-.69,13.77-2.08l2.34-.78v-17.28l-15.07,1.43Z"/>
        <path class="cls-1" d="M577.64,309.72v-64.96h14.03v7.8c7.36-4.76,14.72-7.84,22.09-9.22v14.16c-7.45,1.47-13.82,3.38-19.1,5.72l-2.86,1.17v45.34h-14.16Z"/>
        <path class="cls-1" d="M676.91,217.73v91.99h-14.03v-3.38c-6.32,3.21-12.13,4.81-17.41,4.81-8.49,0-14.7-2.55-18.64-7.67-3.94-5.11-5.91-13.69-5.91-25.73s2.19-20.79,6.56-26.25c4.37-5.46,11.19-8.19,20.46-8.19,3.12,0,8.06.56,14.81,1.69v-27.29h14.16ZM660.54,296.21l2.21-.91v-38.46c-5.2-.87-10-1.3-14.42-1.3-8.75,0-13.12,7.28-13.12,21.83,0,7.97,1.02,13.49,3.05,16.57,2.03,3.08,5.26,4.61,9.68,4.61s8.62-.78,12.6-2.34Z"/>
        <path class="cls-1" d="M694.06,309.72v-64.96h14.03v7.8c7.36-4.76,14.72-7.84,22.09-9.22v14.16c-7.45,1.47-13.82,3.38-19.1,5.72l-2.86,1.17v45.34h-14.16Z"/>
        <path class="cls-1" d="M744.01,251.77c4.46-5.63,11.89-8.45,22.28-8.45s17.82,2.82,22.28,8.45c4.46,5.63,6.69,14.08,6.69,25.34s-2.17,19.75-6.5,25.47c-4.33,5.72-11.82,8.57-22.48,8.57s-18.15-2.86-22.48-8.57c-4.33-5.72-6.5-14.21-6.5-25.47s2.23-19.7,6.69-25.34ZM754.6,294c1.99,3.46,5.89,5.2,11.69,5.2s9.7-1.73,11.69-5.2c1.99-3.46,2.99-9.14,2.99-17.02s-1.06-13.47-3.18-16.76c-2.12-3.29-5.96-4.94-11.5-4.94s-9.38,1.65-11.5,4.94c-2.12,3.29-3.18,8.88-3.18,16.76s.99,13.56,2.99,17.02Z"/>
        <path class="cls-1" d="M812.87,251.77c4.46-5.63,11.89-8.45,22.28-8.45s17.82,2.82,22.28,8.45c4.46,5.63,6.69,14.08,6.69,25.34s-2.17,19.75-6.5,25.47c-4.33,5.72-11.82,8.57-22.48,8.57s-18.15-2.86-22.48-8.57c-4.33-5.72-6.5-14.21-6.5-25.47s2.23-19.7,6.69-25.34ZM823.46,294c1.99,3.46,5.89,5.2,11.69,5.2s9.7-1.73,11.69-5.2c1.99-3.46,2.99-9.14,2.99-17.02s-1.06-13.47-3.18-16.76c-2.12-3.29-5.96-4.94-11.5-4.94s-9.38,1.65-11.5,4.94c-2.12,3.29-3.18,8.88-3.18,16.76s.99,13.56,2.99,17.02Z"/>
        <path class="cls-1" d="M892.32,309.72h-14.16v-64.96h14.03v4.03c6.15-3.64,11.78-5.46,16.89-5.46,7.54,0,13.04,2.12,16.5,6.37,7.88-4.24,15.72-6.37,23.52-6.37s13.29,2.4,16.5,7.21c3.2,4.81,4.81,12.93,4.81,24.36v34.82h-14.03v-34.43c0-7.02-.71-12-2.14-14.94-1.43-2.94-4.4-4.42-8.9-4.42-3.9,0-8.1.87-12.6,2.6l-2.21.91c.69,1.73,1.04,7.28,1.04,16.63v33.65h-14.03v-33.39c0-7.71-.69-13.04-2.08-15.98-1.39-2.94-4.42-4.42-9.09-4.42-4.33,0-8.36.87-12.08,2.6l-1.95.78v50.41Z"/>
        <path class="cls-1" d="M1032.12,258.14c-10.22-1.38-17.63-2.08-22.22-2.08s-7.78.54-9.55,1.62c-1.78,1.08-2.66,2.79-2.66,5.13s.97,3.98,2.92,4.94c1.95.95,6.54,2.06,13.77,3.31,7.23,1.26,12.36,3.23,15.4,5.91,3.03,2.69,4.55,7.45,4.55,14.29s-2.19,11.87-6.56,15.07c-4.38,3.21-10.76,4.81-19.17,4.81-5.28,0-11.95-.74-20.01-2.21l-4.03-.65.52-11.82c10.39,1.39,17.89,2.08,22.48,2.08s7.86-.56,9.81-1.69c1.95-1.12,2.92-2.99,2.92-5.59s-.93-4.4-2.79-5.39c-1.86-.99-6.32-2.08-13.38-3.25-7.06-1.17-12.24-3.01-15.53-5.52-3.29-2.51-4.94-7.1-4.94-13.77s2.27-11.65,6.82-14.94c4.55-3.29,10.37-4.94,17.47-4.94,5.54,0,12.34.69,20.4,2.08l4.03.78-.26,11.82Z"/>
      </g>
    </g>
  </g>
</svg>