<?xml version="1.0" encoding="UTF-8"?>
<svg id="Layer_2" xmlns="http://www.w3.org/2000/svg" version="1.1" viewBox="0 0 1034.3 311.1">
  <!-- Generator: Adobe Illustrator 29.8.3, SVG Export Plug-In . SVG Version: 2.1.1 Build 3)  -->
  <defs>
    <style>
      .st0 {
        fill: #0c4aa9;
      }

      .st1 {
        fill: #df5e27;
      }
    </style>
  </defs>
  <g id="Layer_1-2">
    <g>
      <g id="exgEE8.tif">
        <g>
          <path class="st0" d="M0,146.1v-8.5c6.3-27.1,46.3-22.7,45.2,5.3-1,26.4-39.4,29-45.2,3.1ZM20.3,130.7c-13.8,2.2-11,25,4.6,22.2,13.5-2.4,11.2-24.8-4.6-22.2Z"/>
          <path class="st1" d="M265.3,23.4c12.9.7,35.8-4.7,39.2,13.4,1.2,6.6,1.2,32.9.3,39.8-.8,6-5.8,11.5-11.3,13.6-.9,6.2,4.1,27.8-8.2,23l-32.6-21.7c-13.8-1.5-33.5,4.6-37.4-13.7-.8-.2-1.4,0-2.1.4-5.2,2.1-14.1,11.2-19,12.7-11.9,3.6-6.7-17-7.8-23.2-5.9-2.3-10.6-7.8-11.3-14.2-.9-8.1-1-30.1,0-38,.9-7.2,7.9-13.8,15.1-14.5,18.8,1.9,43.1-2.6,61.2.2,10.3,1.6,15.5,12.8,13.9,22.4h0ZM254.1,23.4c0-4.6,1.1-10.1-4.6-11.2-18.4,1.2-39-1.7-57.2,0-3.6.3-5.5,1.5-6,5.3-.8,6.5-.9,29,0,35.2,1,6.6,11.2,3.5,11.2,8.5v13.8l16.6-11.3c2.2-12.2-4.2-28,7.1-36.7,1.2-.9,5.9-3.5,7-3.5h25.8,0ZM254.1,34.6h-24.4c-.8,0-3.9,3-3.9,3.9v18.7h24.4c.8,0,3.9-3,3.9-3.9v-18.7ZM282.3,97.4v-13.8c0-5,10.2-1.9,11.2-8.5.9-5.5.9-30.3,0-35.9-.2-1.6-2.4-4.6-3.8-4.6h-24.4v20.1c0,1-2.4,5.5-3.2,6.6-8.5,11.9-23.8,4.9-35.9,7.7-.9,2.9-1,7.7,1.7,9.6,4.2,3,22.3-.3,28.2,1.4l26.1,17.3h0Z"/>
          <path class="st1" d="M28.2,85.4c-7.9.3-15.9-6.8-16.9-14.5s-1-31.1,0-38.7c.9-7.2,7.9-13.8,15.1-14.5,22.7,1.8,49.1-2.4,71.3,0,7.6.8,14.3,7.5,15.2,15.2.9,8.4.9,29,0,37.4-2.3,21.4-29.5,13.6-43.8,15.5-10.3,5-22.2,17.1-32.2,21.4-12.6,5.5-7.9-15.3-8.7-21.7ZM39.5,91.8l26.6-17.5c9.6-1.1,20.8.9,30.2-.1,3.2-.4,4.9-2,5.3-5.3.9-7.7.7-26,0-33.9-.3-3.5-1.5-5.5-5.3-6-21.8,1.5-46.3-2-67.8,0-3.6.3-5.5,1.5-6,5.3-1.3,11.1.7,25,.3,36.4,2.4,5.9,9.3,2.1,13.6,4,.9.4,3,2.6,3,3.3v13.8h0Z"/>
          <path class="st0" d="M312.5,119.5c30.9-4.5,35.7,41.5,6.8,44.9-30.1,3.6-34.9-40.8-6.8-44.9ZM313.9,130.7c-13.8,2.2-11,25,4.6,22.2,13.5-2.4,11.2-24.8-4.6-22.2Z"/>
          <path class="st0" d="M165.7,108.2c31-4.5,35.5,41.6,6.8,44.9-30.2,3.4-34.8-40.8-6.8-44.9ZM167.1,119.4c-13.8,2.2-11,25,4.6,22.2,13.5-2.4,11.2-24.8-4.6-22.2Z"/>
          <path class="st0" d="M333.1,249.1c0-.4,4.8.4,5.6-4.6-1.2-18.8,1.8-40,0-58.5-.9-10.3-10.3-17.4-20.5-15.5-5.7,1.1-8.2,4.7-12.4,7.3-4.2,2.6-21.7,14-24.8,14.8-5.8,1.5-20.7-1.6-24.9,1.2-.5.4-2.1,2.4-2.1,2.8v13.1h-12l-5.3-30.3c-2.2-5.6-10.6-4.4-11,1.8l4.3,28.6h-16.2c-3.2-11.2-.7-31.1-9.9-39.2-2.3-2-19-10.9-21.7-11.5-4-.8-19.4-.6-23.9-.2-3.1.3-18.7,7.9-21.7,10-11.5,7.9-8.3,28.6-11.8,40.8h-16.2l4.3-28.6c-.4-6.2-8.8-7.4-11-1.8l-5.3,30.3h-12v-13.1c0-.4-1.6-2.4-2.1-2.8-4.1-2.9-19.1.2-24.9-1.2-3.1-.8-20.6-12.2-24.8-14.8-2.4-1.5-4.6-4.1-7.3-5.4-11.4-5.6-21.5-.2-25.6,11.2v73.4c1.5,2.4,3.1,3.1,5.7,4v39.1H0v11.3h338.7v-11.3h-5.6v-50.8h0ZM16.9,299.9v-35.3c6,2,12.4,3.5,18,6.4l8.1,28.9s-26.1,0-26.1,0ZM67.8,266l-7-20.8-26.8-15.9v-16.2c2.7.6,13.7,7.8,15.2,7.8h18.7v45.2ZM73.4,209.6h-21.5c-1.8,0-17.6-9.9-21.5-11-4.1-1.1-7.3.6-7.8,4.9-.6,5.6-.8,24.3,0,29.6.2,1.5.9,2.7,2.1,3.5l27.1,16.6,13.8,46.5h-10.6l-11.3-37.8-32.2-11.6v-65.7c4.9-7.7,9.1-1.6,13.6,1.3,3.5,2.2,27.8,17.8,29.5,17.8h18.7v5.6h0ZM142.1,178.8c.7-.6,16.2-8.3,17.2-8.5,3.3-.7,14.6-.6,18.2-.2,3.3.3,18.9,7.9,20.4,10.7l4.6,28.9h-10.6v-24.3c0-2.3-3.9-3.7-6-3.9-11-1-23.4.8-34.6,0-1.5-.2-4.6,2.7-4.6,3.8v24.3h-10.6c2.1-5.7,2.2-27.5,5.9-30.8h0ZM90.3,299.9h-11.3v-56.4h11.3v56.4ZM101.6,299.9v-56.4h33.9c-1,9.7,7.3,14,11.9,21l4.4,35.5h-50.1ZM181,258.2l-5.7,41.7h-12.3s-5.3-41.7-5.3-41.7c-1.6-4.7-11.6-8.6-11-14.8h45.2c2.7,2.7-10.1,12-11,14.8h0ZM237.1,299.9h-50.1l4.4-35.5c4.6-7,12.9-11.2,11.9-21h33.9v56.4h0ZM259.7,299.9h-11.3v-56.4h11.3v56.4ZM259.7,232.1H79v-11.3h180.7v11.3h0ZM271,299.9v-22.6l12.7,22.6h-12.7ZM321.8,299.9h-12.7l-8.5-36.2,21.2-8.9v45.1h0ZM289.3,256.5l-1.3,2.3,9.7,41.1-24.7-43.3,42-26.5c.8-.9,1-2,1.1-3.1.5-4.6.6-19.5,0-24-.6-3.6-3.8-5.2-7.2-4.5-4.2.8-19.9,11.1-22,11.1h-21.5v-5.6c5.3-.8,13.8,1.1,18.7,0,2.1-.5,25.7-15.3,29.5-17.8,4.4-2.8,8.2-8.7,13.4-1.8l.4,55.4-38,16.7h0ZM271,244.1v-23.3h18.7c1.5,0,12.5-7.2,15.2-7.8v10.2l-33.9,20.8h0Z"/>
          <rect class="st0" x="79" y="45.9" width="11.3" height="11.3"/>
          <rect class="st0" x="56.5" y="45.9" width="11.3" height="11.3"/>
          <rect class="st0" x="33.9" y="45.9" width="11.3" height="11.3"/>
        </g>
      </g>
      <g>
        <path class="st1" d="M358.8,188.5l33.7-136.5h44l33.9,136.5h-22.3l-7.4-29.3h-52.4l-7.4,29.3h-22.1ZM409.6,70.5l-16.9,69.1h43.6l-16.7-69.1h-10Z"/>
        <path class="st1" d="M489.9,188.5V52h22.1v136.5h-22.1Z"/>
        <path class="st0" d="M365.1,220.7h33.8c9.1,0,15.9,1.8,20.4,5.5,4.5,3.7,6.8,9.6,6.8,17.6s-.8,9.4-2.5,12.5-4.4,5.5-8,7.5c8.5,3.3,12.7,10.2,12.7,20.7,0,16.8-9.4,25.2-28.3,25.2h-34.8v-89h0ZM398.1,233.2h-18.6v25.5h19.1c8.5,0,12.7-4.4,12.7-13.1s-4.4-12.3-13.2-12.3h0ZM398.9,270.9h-19.4v26.4h19.6c4.8,0,8.3-1,10.7-3s3.6-5.4,3.6-10.3-1.4-8.2-4.2-10.2-6.2-2.9-10.4-2.9h0Z"/>
        <path class="st0" d="M446.5,251.8c4.5-5.6,11.9-8.4,22.3-8.4s17.8,2.8,22.3,8.4,6.7,14.1,6.7,25.3-2.2,19.8-6.5,25.5-11.8,8.6-22.5,8.6-18.1-2.9-22.5-8.6c-4.3-5.7-6.5-14.2-6.5-25.5s2.2-19.7,6.7-25.3h0ZM457.1,294c2,3.5,5.9,5.2,11.7,5.2s9.7-1.7,11.7-5.2c2-3.5,3-9.1,3-17s-1.1-13.5-3.2-16.8-6-4.9-11.5-4.9-9.4,1.6-11.5,4.9-3.2,8.9-3.2,16.8,1,13.6,3,17Z"/>
        <path class="st0" d="M559.8,264.8v29.6c0,1.9.6,3.3,1.5,4.2s2.3,1.5,4.2,1.8l-.4,10.8c-7.5,0-13.2-1.6-17.3-4.8-6.9,3.2-13.9,4.8-20.9,4.8-12.9,0-19.4-6.9-19.4-20.7s1.8-11.4,5.3-14.3,8.9-4.7,16.2-5.3l16.8-1.4v-4.7c0-3.5-.8-5.9-2.3-7.3-1.5-1.4-3.8-2.1-6.7-2.1-5.5,0-12.5.4-20.8,1l-4.2.3-.5-10c9.4-2.2,18.1-3.4,26-3.4s13.6,1.7,17.2,5.1,5.3,8.9,5.3,16.3h0ZM530.7,280.9c-6,.5-9,3.8-9,9.7s2.6,9,7.9,9,8.9-.7,13.8-2.1l2.3-.8v-17.3l-15.1,1.4h0Z"/>
        <path class="st0" d="M577.6,309.7v-65h14v7.8c7.4-4.8,14.7-7.8,22.1-9.2v14.2c-7.5,1.5-13.8,3.4-19.1,5.7l-2.9,1.2v45.3h-14.2Z"/>
        <path class="st0" d="M676.9,217.7v92h-14v-3.4c-6.3,3.2-12.1,4.8-17.4,4.8-8.5,0-14.7-2.5-18.6-7.7-3.9-5.1-5.9-13.7-5.9-25.7s2.2-20.8,6.6-26.2c4.4-5.5,11.2-8.2,20.5-8.2s8.1.6,14.8,1.7v-27.3h14.2ZM660.5,296.2l2.2-.9v-38.5c-5.2-.9-10-1.3-14.4-1.3-8.8,0-13.1,7.3-13.1,21.8s1,13.5,3,16.6c2,3.1,5.3,4.6,9.7,4.6s8.6-.8,12.6-2.3Z"/>
        <path class="st0" d="M694.1,309.7v-65h14v7.8c7.4-4.8,14.7-7.8,22.1-9.2v14.2c-7.5,1.5-13.8,3.4-19.1,5.7l-2.9,1.2v45.3h-14.2Z"/>
        <path class="st0" d="M744,251.8c4.5-5.6,11.9-8.4,22.3-8.4s17.8,2.8,22.3,8.4,6.7,14.1,6.7,25.3-2.2,19.8-6.5,25.5-11.8,8.6-22.5,8.6-18.2-2.9-22.5-8.6c-4.3-5.7-6.5-14.2-6.5-25.5s2.2-19.7,6.7-25.3h0ZM754.6,294c2,3.5,5.9,5.2,11.7,5.2s9.7-1.7,11.7-5.2c2-3.5,3-9.1,3-17s-1.1-13.5-3.2-16.8-6-4.9-11.5-4.9-9.4,1.6-11.5,4.9-3.2,8.9-3.2,16.8,1,13.6,3,17Z"/>
        <path class="st0" d="M812.9,251.8c4.5-5.6,11.9-8.4,22.3-8.4s17.8,2.8,22.3,8.4,6.7,14.1,6.7,25.3-2.2,19.8-6.5,25.5-11.8,8.6-22.5,8.6-18.2-2.9-22.5-8.6c-4.3-5.7-6.5-14.2-6.5-25.5s2.2-19.7,6.7-25.3h0ZM823.5,294c2,3.5,5.9,5.2,11.7,5.2s9.7-1.7,11.7-5.2c2-3.5,3-9.1,3-17s-1.1-13.5-3.2-16.8-6-4.9-11.5-4.9-9.4,1.6-11.5,4.9-3.2,8.9-3.2,16.8,1,13.6,3,17Z"/>
        <path class="st0" d="M892.3,309.7h-14.2v-65h14v4c6.2-3.6,11.8-5.5,16.9-5.5,7.5,0,13,2.1,16.5,6.4,7.9-4.2,15.7-6.4,23.5-6.4s13.3,2.4,16.5,7.2c3.2,4.8,4.8,12.9,4.8,24.4v34.8h-14v-34.4c0-7-.7-12-2.1-14.9s-4.4-4.4-8.9-4.4-8.1.9-12.6,2.6l-2.2.9c.7,1.7,1,7.3,1,16.6v33.6h-14v-33.4c0-7.7-.7-13-2.1-16s-4.4-4.4-9.1-4.4-8.4.9-12.1,2.6l-2,.8v50.4h0Z"/>
        <path class="st0" d="M1032.1,258.1c-10.2-1.4-17.6-2.1-22.2-2.1s-7.8.5-9.5,1.6c-1.8,1.1-2.7,2.8-2.7,5.1s1,4,2.9,4.9c2,1,6.5,2.1,13.8,3.3,7.2,1.3,12.4,3.2,15.4,5.9,3,2.7,4.6,7.5,4.6,14.3s-2.2,11.9-6.6,15.1c-4.4,3.2-10.8,4.8-19.2,4.8s-12-.7-20-2.2l-4-.6.5-11.8c10.4,1.4,17.9,2.1,22.5,2.1s7.9-.6,9.8-1.7c2-1.1,2.9-3,2.9-5.6s-.9-4.4-2.8-5.4c-1.9-1-6.3-2.1-13.4-3.2s-12.2-3-15.5-5.5c-3.3-2.5-4.9-7.1-4.9-13.8s2.3-11.6,6.8-14.9c4.5-3.3,10.4-4.9,17.5-4.9s12.3.7,20.4,2.1l4,.8-.3,11.8h0Z"/>
      </g>
    </g>
  </g>
  <g id="exgEE8.tif1" data-name="exgEE8.tif">
    <g>
      <path class="st0" d="M106.9-187.8v-8.5c6.3-27.1,46.3-22.7,45.2,5.3-1,26.4-39.4,29-45.2,3.1ZM127.2-203.1c-13.8,2.2-11,25,4.6,22.2,13.5-2.4,11.2-24.8-4.6-22.2Z"/>
      <path class="st1" d="M372.3-310.5c12.9.7,35.8-4.7,39.2,13.4,1.2,6.6,1.2,32.9.3,39.8-.8,6-5.8,11.5-11.3,13.6-.9,6.2,4.1,27.8-8.2,23l-32.6-21.7c-13.8-1.5-33.5,4.6-37.4-13.7-.8-.2-1.4,0-2.1.4-5.2,2.1-14.1,11.2-19,12.7-11.9,3.6-6.7-17-7.8-23.2-5.9-2.3-10.6-7.8-11.3-14.2-.9-8.1-1-30.1,0-38,.9-7.2,7.9-13.8,15.1-14.5,18.8,1.9,43.1-2.6,61.2.2,10.3,1.6,15.5,12.8,13.9,22.4h0ZM361-310.5c0-4.6,1.1-10.1-4.6-11.2-18.4,1.2-39-1.7-57.2,0-3.6.3-5.5,1.5-6,5.3-.8,6.5-.9,29,0,35.2,1,6.6,11.2,3.5,11.2,8.5v13.8l16.6-11.3c2.2-12.2-4.2-28,7.1-36.7,1.2-.9,5.9-3.5,7-3.5h25.8,0ZM361-299.2h-24.4c-.8,0-3.9,3-3.9,3.9v18.7h24.4c.8,0,3.9-3,3.9-3.9v-18.7ZM389.2-236.4v-13.8c0-5,10.2-1.9,11.2-8.5.9-5.5.9-30.3,0-35.9-.2-1.6-2.4-4.6-3.8-4.6h-24.4v20.1c0,1-2.4,5.5-3.2,6.6-8.5,11.9-23.8,4.9-35.9,7.7-.9,2.9-1,7.7,1.7,9.6,4.2,3,22.3-.3,28.2,1.4l26.1,17.3h0Z"/>
      <path class="st1" d="M135.1-248.4c-7.9.3-15.9-6.8-16.9-14.5s-1-31.1,0-38.7c.9-7.2,7.9-13.8,15.1-14.5,22.7,1.8,49.1-2.4,71.3,0,7.6.8,14.3,7.5,15.2,15.2.9,8.4.9,29,0,37.4-2.3,21.4-29.5,13.6-43.8,15.5-10.3,5-22.2,17.1-32.2,21.4-12.6,5.5-7.9-15.3-8.7-21.7ZM146.4-242.1l26.6-17.5c9.6-1.1,20.8.9,30.2-.1,3.2-.4,4.9-2,5.3-5.3.9-7.7.7-26,0-33.9-.3-3.5-1.5-5.5-5.3-6-21.8,1.5-46.3-2-67.8,0-3.6.3-5.5,1.5-6,5.3-1.3,11.1.7,25,.3,36.4,2.4,5.9,9.3,2.1,13.6,4,.9.4,3,2.6,3,3.3v13.8h0Z"/>
      <path class="st0" d="M419.4-214.4c30.9-4.5,35.7,41.5,6.8,44.9-30.1,3.6-34.9-40.8-6.8-44.9ZM420.8-203.1c-13.8,2.2-11,25,4.6,22.2,13.5-2.4,11.2-24.8-4.6-22.2Z"/>
      <path class="st0" d="M272.6-225.7c31-4.5,35.5,41.6,6.8,44.9-30.2,3.4-34.8-40.8-6.8-44.9ZM274-214.4c-13.8,2.2-11,25,4.6,22.2,13.5-2.4,11.2-24.8-4.6-22.2Z"/>
      <path class="st0" d="M440-84.8c0-.4,4.8.4,5.6-4.6-1.2-18.8,1.8-40,0-58.5-.9-10.3-10.3-17.4-20.5-15.5-5.7,1.1-8.2,4.7-12.4,7.3-4.2,2.6-21.7,14-24.8,14.8-5.8,1.5-20.7-1.6-24.9,1.2-.5.4-2.1,2.4-2.1,2.8v13.1h-12l-5.3-30.3c-2.2-5.6-10.6-4.4-11,1.8l4.3,28.6h-16.2c-3.2-11.2-.7-31.1-9.9-39.2-2.3-2-19-10.9-21.7-11.5-4-.8-19.4-.6-23.9-.2-3.1.3-18.7,7.9-21.7,10-11.5,7.9-8.3,28.6-11.8,40.8h-16.2l4.3-28.6c-.4-6.2-8.8-7.4-11-1.8l-5.3,30.3h-12v-13.1c0-.4-1.6-2.4-2.1-2.8-4.1-2.9-19.1.2-24.9-1.2-3.1-.8-20.6-12.2-24.8-14.8-2.4-1.5-4.6-4.1-7.3-5.4-11.4-5.6-21.5-.2-25.6,11.2v73.4c1.5,2.4,3.1,3.1,5.7,4v39.1h-5.7v11.3h338.7v-11.3h-5.6v-50.8h0ZM123.9-34v-35.3c6,2,12.4,3.5,18,6.4l8.1,28.9s-26.1,0-26.1,0ZM174.7-67.8l-7-20.8-26.8-15.9v-16.2c2.7.6,13.7,7.8,15.2,7.8h18.7v45.2ZM180.3-124.3h-21.5c-1.8,0-17.6-9.9-21.5-11-4.1-1.1-7.3.6-7.8,4.9-.6,5.6-.8,24.3,0,29.6.2,1.5.9,2.7,2.1,3.5l27.1,16.6,13.8,46.5h-10.6l-11.3-37.8-32.2-11.6v-65.7c4.9-7.7,9.1-1.6,13.6,1.3,3.5,2.2,27.8,17.8,29.5,17.8h18.7v5.6h0ZM249-155.1c.7-.6,16.2-8.3,17.2-8.5,3.3-.7,14.6-.6,18.2-.2,3.3.3,18.9,7.9,20.4,10.7l4.6,28.9h-10.6v-24.3c0-2.3-3.9-3.7-6-3.9-11-1-23.4.8-34.6,0-1.5-.2-4.6,2.7-4.6,3.8v24.3h-10.6c2.1-5.7,2.2-27.5,5.9-30.8h0ZM197.3-34h-11.3v-56.4h11.3v56.4ZM208.5-34v-56.4h33.9c-1,9.7,7.3,14,11.9,21l4.4,35.5h-50.1ZM287.9-75.6l-5.7,41.7h-12.3s-5.3-41.7-5.3-41.7c-1.6-4.7-11.6-8.6-11-14.8h45.2c2.7,2.7-10.1,12-11,14.8h0ZM344-34h-50.1l4.4-35.5c4.6-7,12.9-11.2,11.9-21h33.9v56.4h0ZM366.6-34h-11.3v-56.4h11.3v56.4ZM366.6-101.7h-180.7v-11.3h180.7v11.3h0ZM377.9-34v-22.6l12.7,22.6h-12.7ZM428.7-34h-12.7l-8.5-36.2,21.2-8.9v45.1h0ZM396.2-77.4l-1.3,2.3,9.7,41.1-24.7-43.3,42-26.5c.8-.9,1-2,1.1-3.1.5-4.6.6-19.5,0-24-.6-3.6-3.8-5.2-7.2-4.5-4.2.8-19.9,11.1-22,11.1h-21.5v-5.6c5.3-.8,13.8,1.1,18.7,0,2.1-.5,25.7-15.3,29.5-17.8,4.4-2.8,8.2-8.7,13.4-1.8l.4,55.4-38,16.7h0ZM377.9-89.7v-23.3h18.7c1.5,0,12.5-7.2,15.2-7.8v10.2l-33.9,20.8h0Z"/>
      <rect class="st0" x="186" y="-287.9" width="11.3" height="11.3"/>
      <rect class="st0" x="163.4" y="-287.9" width="11.3" height="11.3"/>
      <rect class="st0" x="140.8" y="-287.9" width="11.3" height="11.3"/>
    </g>
  </g>
</svg>