<?xml version="1.0" encoding="UTF-8"?>
<svg id="Layer_2" data-name="Layer 2" xmlns="http://www.w3.org/2000/svg" viewBox="0 0 1042.6 223.52">
  <defs>
    <style>
      .cls-1 {
        fill: #46597e;
      }

      .cls-2 {
        fill: #f66733;
      }
    </style>
  </defs>
  <g id="Layer_1-2" data-name="Layer 1">
    <g>
      <g id="gTlFTB.tif">
        <g>
          <path class="cls-2" d="M92.28,0v16.2h-14.34c-.1,0-.22-1.18-.71-1.83-4.2-5.53-11.92-6.35-16.19-.5-7.42,10.15,7.59,22.43,16.19,11.09.49-.64.61-1.83.71-1.83h14.34v14.58s-.65.69-.69.69h-27.76c-.74,0-10.05,8.26-11.79,9.08-.91.25-1.99-.89-3.12-1.11-10.72-2.03-16.71,11.26-8.22,17.48,7.78,5.69,18.02-2.12,15.08-11.05,1.81-.42,9.71-7.92,10.37-7.92h25.45s.69.65.69.69v14.35c-2.16,1.04-4.57,1.38-6.79,2.46-14.26,6.96-16.8,26.92-4.56,37.11,10.74,8.94,26.97,6.13,33.8-6.02,1.47-2.61,1.99-5.23,3.23-7.87h14.34s.69.65.69.69v24.99c0,.68-7.6,10.22-8.57,10.4-3.74.7-5.94-.88-9.49,2.54-8.39,8.1,2.77,22.51,12.93,14.78,4.54-3.45,4.44-8.39,2.41-13.28,1.1-1.74,9.2-11.08,9.2-12.13v-28h13.88v14.35c0,.19-2.42.99-3.34,1.85-6.47,6.04-1.94,16.89,6.81,16.86,8.71-.02,13.21-10.87,6.81-16.86-.92-.86-3.34-1.66-3.34-1.85v-14.35h16.89c.68,0,.3,4.03.23,4.86-1.98,21.7-11.63,42.59-25.91,58.77v73.58s-.65.69-.69.69h-10.41v-28c0-1.09-8.21-10.25-9.19-12.13,2.63-5.49,1.08-12.63-5.02-14.84-12.1-4.4-18.48,13.22-7.85,18.03,2.58,1.17,6.98.46,7.5.8,2.27,1.49,5.05,7.7,7.62,9.53v26.61h-44.89v-30.08c0-.08,1.01-.16,1.54-.52,7.05-4.79,10.85-11.51,11.44-20.05.72-10.47.96-29.08,0-39.37-.54-5.76-6.05-5.69-6.85-1.26l-.15,43.35c-1.67,7.63-7.57,13.44-15.47,14.15-13.71,1.23-29.13-.9-43.02,0-23.44-3.63-14.4-31.97-15.95-48.84-.1-1.05-.19-2.04-.74-2.97l-17.49-9.82c-2.36-2.16-2.15-3.96-1.31-6.72,4.82-15.8,14.05-31.95,19.31-47.79-1.04-20.91,2.15-39.49,16.16-55.57C42.93,10.15,57.65,0,68.45,0h23.83Z"/>
          <path class="cls-2" d="M177.89,70.34v8.79h-38.41c-1.86-21.63-19.06-38.97-40.72-40.72V0h8.1c2.86,6.28,2.82,14.84,5.17,21.2.42,1.14.79,1.7,1.88,2.29,1.21.66,8.55,3.71,9.83,4.06.83.23,1.6.38,2.46.13l18.54-11.6,1,.08,16.34,16.47-11.85,19.09c-.26.85-.11,1.61.12,2.45.31,1.15,3.64,9.2,4.21,10.13.63,1.04,1.41,1.32,2.5,1.67,6.32,2.04,14.29,2.83,20.84,4.38Z"/>
          <path class="cls-2" d="M84.12,71.43c15.52-15.77,38.3,9.83,20.88,23.43-15.31,11.95-34.33-9.76-20.88-23.43Z"/>
          <path class="cls-2" d="M132.54,79.13h-15.27c-.8-9.24-9.2-17.75-18.51-18.51v-15.27c17.5.92,32.74,16.29,33.78,33.78Z"/>
        </g>
      </g>
      <g>
        <g>
          <path class="cls-1" d="M297.46,220.3v-9l21.33-2.31-16.71-51.14h-77.62l-16.96,51.14,20.82,2.31v9h-48.83v-9.25l11.05-2.83c2.57-.51,5.14-1.8,6.17-4.88l57.57-169.11h17.99l58.85,169.88c1.03,3.08,2.57,3.6,5.65,4.37l12.08,2.83v9h-51.4ZM263.28,43.74l-34.7,102.8h69.13l-34.44-102.8Z"/>
          <path class="cls-1" d="M373.01,220.3v-9l18.76-1.8c3.6-.77,4.11-1.29,4.11-5.14V50.16c0-3.85-.51-4.88-4.11-5.14l-18.76-1.8v-9h59.37v9l-19.79,2.06c-3.86.51-4.11,1.03-4.11,4.88v153.95c0,4.11.26,4.63,4.11,5.14l19.79,2.06v9h-59.37Z"/>
        </g>
        <g>
          <path class="cls-1" d="M478.81,141.49v-13.05l14.3-.97c1.94-.14,2.22-.69,2.22-2.78V59.19h-9.99c-1.53,0-1.94.14-2.22,1.53l-2.22,12.08h-18.88v-31.78h92.99v31.78h-18.6l-2.22-12.08c-.28-1.39-.69-1.53-2.22-1.53h-9.99v65.51c0,1.94.14,2.5,2.22,2.64l15.27,1.11v13.05h-60.65Z"/>
          <path class="cls-1" d="M558.2,141.49v-13.32l5.83-.83c1.94-.28,2.22-.69,2.22-2.78v-36.92c0-1.53-.42-2.36-1.81-2.91l-7.22-2.64,1.8-13.46h28.04l1.94,12.08h1.11c4.58-8.33,10.13-13.6,18.74-13.6,3.19,0,10.83.69,13.32,1.39v27.76l-20.68-.69-1.25-5.83c-.42-1.39-.83-1.8-1.8-1.8-2.08,0-4.72,1.53-6.25,2.64v33.73c0,2.22.28,2.64,2.36,2.78l14.16,1.25v13.19h-50.52Z"/>
          <path class="cls-1" d="M670.35,141.49l-1.53-7.77-.97-.28c-4.44,4.58-10.83,9.72-22.07,9.72-17.63,0-20.82-11.94-20.82-21.51,0-13.88,8.74-19.85,26.37-20.82l14.3-.83v-8.05c0-4.44,0-8.47-6.52-8.47-5.41,0-7.36,1.39-7.36,8.33l-24.15-1.8c0-19.71,17.9-22.9,31.78-22.9,21.93,0,31.51,5.83,31.51,25.54v31.92c0,2.22.14,2.5,2.22,2.78l6.39,1.11v13.05h-29.15ZM665.63,111.93l-5.69.28c-5.97.28-8.47,2.36-8.47,7.08,0,4.3,3.05,5.97,6.52,5.97,2.64,0,5.55-.56,7.63-1.8v-11.52Z"/>
          <path class="cls-1" d="M702.41,141.49v-13.19l5.83-.83c1.94-.28,2.22-.69,2.22-2.78v-37.06c0-1.53-.42-2.5-1.81-2.91l-7.22-2.64,1.8-13.46h33.17v56.07c0,2.22.14,2.5,2.22,2.78l5.97.97v13.05h-42.19ZM721.71,60.16c-9.3,0-14.71-5.41-14.71-14.71s5.41-14.43,14.71-14.43,14.85,5.14,14.85,14.43-5.41,14.71-14.85,14.71Z"/>
          <path class="cls-1" d="M781.94,124.7c0,2.22.14,2.5,2.22,2.78l5.97.97v13.05h-42.19v-13.19l5.83-.83c1.94-.28,2.22-.69,2.22-2.78v-37.06c0-1.53-.42-2.5-1.81-2.91l-7.08-2.64,1.8-13.46h27.9l1.11,6.52h.97c5.27-3.75,11.94-8.05,23.46-8.05,14.16,0,20.26,7.77,20.26,23.87v33.73c0,2.22.14,2.5,2.22,2.78l6.38.97v13.05h-34.56v-45.52c0-6.25-.97-8.88-5.27-8.88-4.02,0-7.36,1.67-9.44,3.05v34.56Z"/>
          <path class="cls-1" d="M834.13,141.49v-13.19l5.83-.83c1.94-.28,2.22-.69,2.22-2.78v-37.06c0-1.53-.42-2.5-1.81-2.91l-7.22-2.64,1.8-13.46h33.17v56.07c0,2.22.14,2.5,2.22,2.78l5.97.97v13.05h-42.19ZM853.42,60.16c-9.3,0-14.71-5.41-14.71-14.71s5.41-14.43,14.71-14.43,14.85,5.14,14.85,14.43-5.41,14.71-14.85,14.71Z"/>
          <path class="cls-1" d="M913.66,124.7c0,2.22.14,2.5,2.22,2.78l5.97.97v13.05h-42.19v-13.19l5.83-.83c1.94-.28,2.22-.69,2.22-2.78v-37.06c0-1.53-.42-2.5-1.81-2.91l-7.08-2.64,1.8-13.46h27.9l1.11,6.52h.97c5.27-3.75,11.94-8.05,23.46-8.05,14.16,0,20.26,7.77,20.26,23.87v33.73c0,2.22.14,2.5,2.22,2.78l6.38.97v13.05h-34.56v-45.52c0-6.25-.97-8.88-5.27-8.88-4.02,0-7.36,1.67-9.44,3.05v34.56Z"/>
          <path class="cls-1" d="M1029.42,82.78c2.36,3.05,5.27,7.77,5.27,14.02,0,14.85-12.49,23.32-29.98,23.32-5,0-7.77-.55-9.99-.97l-4.16,5.27,13.32.56c23.59.97,37.61,2.22,37.61,21.79,0,17.49-15.68,25.96-39.83,25.96-25.82,0-35.25-5.83-35.25-16.52,0-6.52,3.89-10.41,8.19-14.57-4.86-2.08-7.08-5.97-7.08-9.85,0-2.36,1.11-5,3.33-7.22,2.78-2.78,6.66-5.83,10.55-8.88-7.36-3.33-13.19-10.41-13.19-21.24,0-14.85,10.55-27.34,33.31-27.34,5.55,0,11.24.69,14.16,1.53h26.93v13.32l-13.19.83ZM988.34,145.94c-1.53,1.8-2.78,3.75-2.78,5.97,0,5.41,9.58,5.97,16.93,5.97,4.44,0,14.16-.28,14.16-5.97,0-4.03-4.16-4.72-9.44-5l-18.88-.97ZM1002.91,83.62c-5.83,0-10.55,3.19-10.55,10.27,0,6.38,3.19,9.99,10.13,9.99,5.97,0,10.55-3.89,10.55-9.85,0-6.94-4.16-10.41-10.13-10.41Z"/>
          <path class="cls-1" d="M514.19,218.51c-5.36,3.17-14.5,5.01-22.51,5.01-22.07,0-31.38-12.31-31.38-33.05,0-18.81,11.16-32.79,33.49-32.79,7.03,0,15.21,1.85,20.31,5.1v19.16l-11.96-.97-1.41-8.79c-.18-.97-.62-1.32-1.41-1.49-1.85-.35-3.78-.62-5.89-.62-9.58,0-15.65,6.51-15.65,20.4s5.8,20.92,15.03,20.92c2.2,0,5.01-.35,6.68-.7,1.23-.26,1.49-.44,1.76-1.93l1.32-8.35h11.6v18.11Z"/>
          <path class="cls-1" d="M519.02,199.16c0-14.24,7.91-23.82,24.7-23.82s23.56,9.76,23.56,23.38c0,15.03-7.56,24.79-24.44,24.79s-23.82-9.93-23.82-24.35ZM550.14,199.16c0-9.76-2.64-12.48-6.68-12.48s-7.21,2.55-7.21,12.57,2.73,13.19,6.94,13.19,6.95-2.99,6.95-13.27Z"/>
          <path class="cls-1" d="M604.21,222.46l-.7-4.13-.53-.18c-3.34,2.37-7.65,5.36-14.95,5.36-8.97,0-12.84-4.92-12.84-15.12v-21.01c0-1.41-.09-1.58-1.41-1.76l-4.04-.62,1.06-8.7h20.83v28.92c0,3.96.62,5.63,3.34,5.63,2.55,0,4.66-1.05,5.98-1.93v-21.54c0-1.41-.09-1.58-1.41-1.76l-3.34-.62,1.06-8.7h20.13v35.6c0,.97.09,1.41,1.23,1.58l4.22.62v8.35h-18.64Z"/>
          <path class="cls-1" d="M625.04,222.46v-8.44l3.69-.53c1.23-.18,1.41-.44,1.41-1.76v-23.38c0-.97-.26-1.49-1.14-1.85l-4.57-1.67,1.14-8.53h17.76l1.23,7.65h.7c2.9-5.28,6.42-8.62,11.87-8.62,2.02,0,6.86.44,8.44.88v17.58l-13.1-.44-.79-3.69c-.26-.88-.53-1.14-1.14-1.14-1.32,0-2.99.97-3.96,1.67v21.36c0,1.41.18,1.67,1.49,1.76l8.97.79v8.35h-32Z"/>
          <path class="cls-1" d="M695.72,190.99l-.79-4.22c-.09-.7-.26-1.06-.88-1.23-1.06-.35-2.81-.62-4.84-.62-3.17,0-5.45.97-5.45,3.25s3.34,3.08,7.56,3.96c7.3,1.49,17.23,3.52,17.23,15.38,0,11.08-8.79,16-21.1,16-8.53,0-16.97-2.11-18.55-3.25v-12.66l11.52.7.79,4.31c.18.97.35,1.23,1.14,1.41.97.26,3.17.62,5.8.62,3.96,0,5.89-1.14,5.89-3.6,0-3.17-4.13-3.87-9.06-4.66-7.03-1.14-15.91-3.43-15.91-14.86s9.85-16.18,20.66-16.18c7.3,0,14.68,1.58,17.49,2.73v13.54l-11.52-.62Z"/>
          <path class="cls-1" d="M755.23,218.68c-6.15,2.81-12.57,4.84-19.34,4.84-17.58,0-23.65-10.55-23.65-24.44,0-16.09,10.2-23.74,22.86-23.74s20.04,6.15,20.04,21.89c0,.97-.09,2.73-.26,4.75h-25.14c.35,6.59,2.9,9.32,8.35,9.32,2.55,0,6.68-.62,13.45-2.81l3.69,10.2ZM739.05,194.07c0-6.33-1.93-7.38-4.48-7.38s-4.48,1.32-4.84,7.38h9.32Z"/>
        </g>
      </g>
    </g>
  </g>
</svg>