<?xml version="1.0" encoding="UTF-8"?>
<svg id="Layer_2" data-name="Layer 2" xmlns="http://www.w3.org/2000/svg" viewBox="0 0 1011.82 223.52">
  <defs>
    <style>
      .cls-1 {
        fill: #fff;
      }
    </style>
  </defs>
  <g id="Layer_1-2" data-name="Layer 1">
    <g>
      <g id="gTlFTB.tif">
        <g>
          <path class="cls-1" d="M92.28,0v16.2h-14.34c-.1,0-.22-1.18-.71-1.83-4.2-5.53-11.92-6.35-16.19-.5-7.42,10.15,7.59,22.43,16.19,11.09.49-.64.61-1.83.71-1.83h14.34v14.58s-.65.69-.69.69h-27.76c-.74,0-10.05,8.26-11.79,9.08-.91.25-1.99-.89-3.12-1.11-10.72-2.03-16.71,11.26-8.22,17.48,7.78,5.69,18.02-2.12,15.08-11.05,1.81-.42,9.71-7.92,10.37-7.92h25.45s.69.65.69.69v14.35c-2.16,1.04-4.57,1.38-6.79,2.46-14.26,6.96-16.8,26.92-4.56,37.11,10.74,8.94,26.97,6.13,33.8-6.02,1.47-2.61,1.99-5.23,3.23-7.87h14.34s.69.65.69.69v24.99c0,.68-7.6,10.22-8.57,10.4-3.74.7-5.94-.88-9.49,2.54-8.39,8.1,2.77,22.51,12.93,14.78,4.54-3.45,4.44-8.39,2.41-13.28,1.1-1.74,9.2-11.08,9.2-12.13v-28h13.88v14.35c0,.19-2.42.99-3.34,1.85-6.47,6.04-1.94,16.89,6.81,16.86,8.71-.02,13.21-10.87,6.81-16.86-.92-.86-3.34-1.66-3.34-1.85v-14.35h16.89c.68,0,.3,4.03.23,4.86-1.98,21.7-11.63,42.59-25.91,58.77v73.58s-.65.69-.69.69h-10.41v-28c0-1.09-8.21-10.25-9.19-12.13,2.63-5.49,1.08-12.63-5.02-14.84-12.1-4.4-18.48,13.22-7.85,18.03,2.58,1.17,6.98.46,7.5.8,2.27,1.49,5.05,7.7,7.62,9.53v26.61h-44.89v-30.08c0-.08,1.01-.16,1.54-.52,7.05-4.79,10.85-11.51,11.44-20.05.72-10.47.96-29.08,0-39.37-.54-5.76-6.05-5.69-6.85-1.26l-.15,43.35c-1.67,7.63-7.57,13.44-15.47,14.15-13.71,1.23-29.13-.9-43.02,0-23.44-3.63-14.4-31.97-15.95-48.84-.1-1.05-.19-2.04-.74-2.97l-17.49-9.82c-2.36-2.16-2.15-3.96-1.31-6.72,4.82-15.8,14.05-31.95,19.31-47.79-1.04-20.91,2.15-39.49,16.16-55.57C42.93,10.15,57.65,0,68.45,0h23.83Z"/>
          <path class="cls-1" d="M177.89,70.34v8.79h-38.41c-1.86-21.63-19.06-38.97-40.72-40.72V0h8.1c2.86,6.28,2.82,14.84,5.17,21.2.42,1.14.79,1.7,1.88,2.29,1.21.66,8.55,3.71,9.83,4.06.83.23,1.6.38,2.46.13l18.54-11.6,1,.08,16.34,16.47-11.85,19.09c-.26.85-.11,1.61.12,2.45.31,1.15,3.64,9.2,4.21,10.13.63,1.04,1.41,1.32,2.5,1.67,6.32,2.04,14.29,2.83,20.84,4.38Z"/>
          <path class="cls-1" d="M84.12,71.43c15.52-15.77,38.3,9.83,20.88,23.43-15.31,11.95-34.33-9.76-20.88-23.43Z"/>
          <path class="cls-1" d="M132.54,79.13h-15.27c-.8-9.24-9.2-17.75-18.51-18.51v-15.27c17.5.92,32.74,16.29,33.78,33.78Z"/>
        </g>
      </g>
      <g>
        <path class="cls-1" d="M296.28,218.5v-11.31l21.33-2.31-15.68-46.26h-75.05l-15.42,46.26,20.82,2.31v11.31h-53.2v-11.31l11.05-2.83c3.08-.77,5.14-1.8,6.17-4.88l56.8-167.05h23.64l58.08,167.57c1.03,3.08,2.83,3.6,5.91,4.37l11.82,2.83v11.31h-56.28ZM264.67,46.57l-32.64,96.89h65.02l-32.38-96.89Z"/>
        <path class="cls-1" d="M373.38,218.5v-11.31l18.76-1.8c3.6-.51,4.11-1.28,4.11-5.14V50.68c0-3.86-.51-4.88-4.11-5.14l-18.76-1.8v-11.31h63.99v11.31l-19.79,2.06c-3.86.51-4.11,1.03-4.11,4.88v149.32c0,4.11.26,4.63,4.11,5.14l19.79,2.06v11.31h-63.99Z"/>
      </g>
      <g>
        <path class="cls-1" d="M474.82,127.93v-12.43l13.62-.93c1.85-.13,2.12-.66,2.12-2.64v-62.4h-9.52c-1.45,0-1.85.13-2.12,1.45l-2.12,11.5h-17.98v-30.27h88.58v30.27h-17.71l-2.12-11.5c-.26-1.32-.66-1.45-2.12-1.45h-9.52v62.4c0,1.85.13,2.38,2.12,2.51l14.54,1.06v12.43h-57.77Z"/>
        <path class="cls-1" d="M550.44,127.93v-12.69l5.55-.79c1.85-.26,2.12-.66,2.12-2.64v-35.17c0-1.45-.4-2.25-1.72-2.78l-6.87-2.51,1.72-12.82h26.71l1.85,11.5h1.06c4.36-7.93,9.65-12.96,17.85-12.96,3.04,0,10.31.66,12.69,1.32v26.44l-19.7-.66-1.19-5.55c-.4-1.32-.79-1.72-1.72-1.72-1.98,0-4.5,1.45-5.95,2.51v32.12c0,2.12.26,2.51,2.25,2.64l13.48,1.19v12.56h-48.12Z"/>
        <path class="cls-1" d="M657.26,127.93l-1.45-7.4-.93-.26c-4.23,4.36-10.31,9.25-21.02,9.25-16.79,0-19.83-11.37-19.83-20.49,0-13.22,8.33-18.91,25.12-19.83l13.62-.79v-7.67c0-4.23,0-8.06-6.21-8.06-5.16,0-7.01,1.32-7.01,7.93l-23-1.72c0-18.77,17.05-21.81,30.27-21.81,20.89,0,30.01,5.55,30.01,24.33v30.41c0,2.12.13,2.38,2.12,2.64l6.08,1.06v12.43h-27.76ZM652.77,99.77l-5.42.26c-5.69.26-8.06,2.25-8.06,6.74,0,4.1,2.91,5.68,6.21,5.68,2.51,0,5.29-.53,7.27-1.72v-10.97Z"/>
        <path class="cls-1" d="M687.8,127.93v-12.56l5.55-.79c1.85-.26,2.12-.66,2.12-2.64v-35.3c0-1.45-.4-2.38-1.72-2.78l-6.87-2.51,1.72-12.82h31.6v53.41c0,2.12.13,2.38,2.12,2.64l5.68.93v12.43h-40.19ZM706.17,50.46c-8.86,0-14.01-5.16-14.01-14.01s5.16-13.75,14.01-13.75,14.15,4.89,14.15,13.75-5.16,14.01-14.15,14.01Z"/>
        <path class="cls-1" d="M763.55,111.93c0,2.12.13,2.38,2.12,2.64l5.68.93v12.43h-40.19v-12.56l5.55-.79c1.85-.26,2.12-.66,2.12-2.64v-35.3c0-1.45-.4-2.38-1.72-2.78l-6.74-2.51,1.72-12.82h26.57l1.06,6.21h.93c5.02-3.57,11.37-7.67,22.34-7.67,13.48,0,19.3,7.4,19.3,22.74v32.12c0,2.12.13,2.38,2.12,2.64l6.08.93v12.43h-32.92v-43.36c0-5.95-.93-8.46-5.02-8.46-3.83,0-7.01,1.59-8.99,2.91v32.92Z"/>
        <path class="cls-1" d="M813.25,127.93v-12.56l5.55-.79c1.85-.26,2.12-.66,2.12-2.64v-35.3c0-1.45-.4-2.38-1.72-2.78l-6.87-2.51,1.72-12.82h31.6v53.41c0,2.12.13,2.38,2.12,2.64l5.68.93v12.43h-40.19ZM831.63,50.46c-8.86,0-14.01-5.16-14.01-14.01s5.16-13.75,14.01-13.75,14.15,4.89,14.15,13.75-5.16,14.01-14.15,14.01Z"/>
        <path class="cls-1" d="M889.01,111.93c0,2.12.13,2.38,2.12,2.64l5.68.93v12.43h-40.19v-12.56l5.55-.79c1.85-.26,2.12-.66,2.12-2.64v-35.3c0-1.45-.4-2.38-1.72-2.78l-6.74-2.51,1.72-12.82h26.57l1.06,6.21h.93c5.02-3.57,11.37-7.67,22.34-7.67,13.48,0,19.3,7.4,19.3,22.74v32.12c0,2.12.13,2.38,2.12,2.64l6.08.93v12.43h-32.92v-43.36c0-5.95-.93-8.46-5.02-8.46-3.83,0-7.01,1.59-8.99,2.91v32.92Z"/>
        <path class="cls-1" d="M999.26,72.01c2.25,2.91,5.02,7.4,5.02,13.35,0,14.15-11.9,22.21-28.56,22.21-4.76,0-7.4-.53-9.52-.93l-3.97,5.02,12.69.53c22.47.93,35.83,2.12,35.83,20.76,0,16.66-14.94,24.72-37.94,24.72-24.59,0-33.58-5.55-33.58-15.73,0-6.21,3.7-9.92,7.8-13.88-4.63-1.98-6.74-5.68-6.74-9.39,0-2.25,1.06-4.76,3.17-6.87,2.64-2.64,6.35-5.55,10.05-8.46-7.01-3.17-12.56-9.92-12.56-20.23,0-14.15,10.05-26.04,31.73-26.04,5.29,0,10.71.66,13.48,1.45h25.65v12.69l-12.56.79ZM960.13,132.16c-1.45,1.72-2.64,3.57-2.64,5.68,0,5.16,9.12,5.69,16.13,5.69,4.23,0,13.48-.26,13.48-5.69,0-3.83-3.97-4.49-8.99-4.76l-17.98-.93ZM974.01,72.8c-5.55,0-10.05,3.04-10.05,9.78,0,6.08,3.04,9.52,9.65,9.52,5.68,0,10.05-3.7,10.05-9.39,0-6.61-3.97-9.92-9.65-9.92Z"/>
        <path class="cls-1" d="M489.51,175.64l-.84-6.61c-.17-1.17-.42-1.42-1.17-1.59-1.67-.33-3.1-.5-4.86-.5-4.86,0-7.37,2.26-7.37,5.53,0,10.63,27.88,3.27,27.88,25.79,0,14.15-10.97,19.93-24.28,19.93-7.54,0-16.58-1.93-20.18-3.6v-17.83h11.64l1.76,8.29c.17.92.42,1.17,1.42,1.34.84.17,3.27.5,5.44.5,5.78,0,8.71-2.26,8.71-6.11,0-11.14-27.88-3.1-27.88-25.45,0-13.4,9.96-19.84,23.28-19.84,7.37,0,13.81,1.76,18.17,3.6v17.58l-11.72-1Z"/>
        <path class="cls-1" d="M546.45,213.65c-4.27,2.6-10.38,4.52-16.83,4.52-15.66,0-22.77-9.63-22.77-22.27,0-15.49,9.71-23.61,23.44-23.61,6.78,0,13.23,2.01,16.24,4.1v14.32l-10.97-.42-1-5.53c-.08-.67-.33-1.17-1-1.42-.92-.33-2.09-.5-3.35-.5-3.6,0-6.95,2.85-6.95,11.39,0,10.38,4.52,12.56,9.21,12.56,4.19,0,7.87-1.17,10.3-2.01l3.68,8.87Z"/>
        <path class="cls-1" d="M570.48,207.03c0,1.34.08,1.51,1.34,1.67l3.6.59v7.87h-25.45v-7.95l3.52-.5c1.17-.17,1.34-.42,1.34-1.67v-41.61c0-.92-.25-1.51-1.09-1.76l-4.35-1.59,1.09-8.12h19.84v23.02l.59.17c2.76-2.51,6.03-4.86,11.89-4.86,8.54,0,12.22,4.69,12.22,14.4v20.35c0,1.34.08,1.51,1.34,1.67l3.85.59v7.87h-20.85v-27.46c0-3.77-.59-5.36-3.18-5.36-2.43,0-4.44,1-5.69,1.84v20.85Z"/>
        <path class="cls-1" d="M601.88,194.98c0-13.56,7.54-22.69,23.53-22.69s22.44,9.29,22.44,22.27c0,14.32-7.2,23.61-23.28,23.61s-22.69-9.46-22.69-23.19ZM631.52,194.98c0-9.29-2.51-11.89-6.36-11.89s-6.87,2.43-6.87,11.97,2.6,12.56,6.61,12.56,6.61-2.85,6.61-12.64Z"/>
        <path class="cls-1" d="M651.19,194.98c0-13.56,7.54-22.69,23.53-22.69s22.44,9.29,22.44,22.27c0,14.32-7.2,23.61-23.28,23.61s-22.69-9.46-22.69-23.19ZM680.83,194.98c0-9.29-2.51-11.89-6.36-11.89s-6.87,2.43-6.87,11.97,2.6,12.56,6.61,12.56,6.61-2.85,6.61-12.64Z"/>
        <path class="cls-1" d="M699.75,217.17v-7.95l3.52-.5c1.17-.17,1.34-.42,1.34-1.67v-41.61c0-.92-.25-1.42-1.09-1.76l-4.35-1.59,1.09-8.12h20.01v53.08c0,1.34.08,1.51,1.34,1.67l3.6.59v7.87h-25.45Z"/>
      </g>
    </g>
  </g>
</svg>