<?xml version="1.0" encoding="UTF-8"?>
<svg id="Layer_2" data-name="Layer 2" xmlns="http://www.w3.org/2000/svg" viewBox="0 0 512 509.21">
  <g id="Layer_1-2" data-name="Layer 1">
    <g id="LCixSG.tif">
      <path d="M152.65,0c7.65,1.92,14.66,3.67,21.29,8.14,23.49,15.84,26.97,50.01,7.64,70.69,15.79.62,31.24,11.49,37.31,26.06.88,2.12,3.6,10.66,3.6,12.37v51.4h44.4c2.39,0,9.7,5.38,11.5,7.46,4,4.63,2.98,10.93,9.95,9.51v-68.37c0-1.71,2.71-10.25,3.6-12.37,6.07-14.57,21.51-25.44,37.31-26.06-19.33-20.69-15.84-54.85,7.64-70.69,6.63-4.47,13.64-6.23,21.29-8.14h9.98c7.94,1.94,14.41,3.55,21.28,8.16,17.6,11.83,25.07,35.07,17.4,54.98l-8.74,15.7c13.46.89,26.79,9.08,33.74,20.64,1.52,2.54,6.17,13.48,6.17,15.79v70.36h54.38c7.41,0,18.49,11.82,18.35,19.57l.05,92.65c-1.86,8.58-11.94,9.21-14.7.84l-.19-90.63c.59-2.45-3.62-7.46-5.51-7.46h-207.03v22.95h31.43c7.09,0,15.78,8.5,17.77,15.16,2.83,9.44,2.94,50.02-.52,59-1.8,4.69-8.14,10.61-12.94,12.01-4.43,1.29-8.57-.3-12.36,1.61-2.03,13.08,5.99,43.73-17.43,33.54l-28.13-33.81-56.69-1.1c-7.4-1.39-15.91-11.74-15.91-19.02v-35.43h-32.43c-6.45,0-17.46-11.99-17.46-18.46v-36.43H20.45c-2.28,0-6.44,5.72-5.54,8.44l.8,208.89,2.86,3.13,55.22,1.07c2.55-19.46,19.63-34.24,38.95-35.89-1.86-4.19-5.09-6.92-7.16-11.29-12.47-26.24,1.66-59.13,30.26-65.92,38.44-9.12,69.04,27.63,54.77,63.76l-8.01,13.44c19.45,1.92,35.94,16.36,39,35.84h67.65c3.07-19.47,19.55-33.92,39-35.84l-8.01-13.44c-11.23-25.7,4.42-57.83,31.9-63.96,38.89-8.67,70.22,30.12,53.12,66.11-2.07,4.37-5.3,7.1-7.16,11.29,19.85,1.63,35.79,16.66,39.48,35.99,16.07-1.5,35.14,1.81,50.83-.04,5.34-.63,7.04-3.32,7.51-8.46,2.38-26.31-1.93-56.13.02-82.82,1.28-8.1,13.94-9.17,14.95,1.89,3.52,38.57-2.66,82.58-.13,121.72-.29,6.4-10.08,18.55-16.38,18.55h-56.37v22.46c0,3.97-9.47,13.34-14.47,12.48-38.35-2.82-82.07,3.74-119.78.05-5.95-.58-15.42-7.25-15.42-13.52v-21.46h-18.46c-5.88,0-6.6-14.97,2-14.97h16.46v-20.96h-65.85v20.96h15.46c8.6,0,7.87,14.97,2,14.97h-17.46v21.46c0,6.27-9.46,12.94-15.42,13.52-37.71,3.69-81.43-2.87-119.78-.05-5,.87-14.47-8.51-14.47-12.48v-22.46H16.46c-6.35,0-14.83-11.18-16.46-16.97v-252.5c1.36-6.98,11.12-17.96,18.46-17.96h54.38v-70.36c0-2.31,4.64-13.25,6.17-15.79,6.95-11.56,20.27-19.76,33.74-20.64l-8.74-15.7c-8.75-24.13,2.35-48.48,25-59.35l13.67-3.79h9.98ZM170.26,24.3c-31.43-31.43-77.39,20.41-42.03,47.53,31.59,24.23,69.08-20.48,42.03-47.53ZM340.58,24.3c-27.05,27.05,10.44,71.76,42.03,47.53,35.36-27.12-10.59-78.96-42.03-47.53ZM207.53,163.68v-45.41c0-11.47-14.35-23.5-25.4-24.49-22.68-2.03-48.62,1.4-71.64.28-8.47.57-22.69,14.09-22.69,22.21v69.36h16.96v-47.41c0-2.09,4.96-6.04,7.48-6.04,2.26,0,7.48,2.72,7.48,5.05v48.41h19.95c2.07-12.72,13.93-18.4,25.95-16.96.97-13.17-5.95-43.72,17.02-34.49l24.88,29.5ZM423.04,185.64v-69.36c0-8.12-14.22-21.64-22.69-22.21-23.02,1.12-48.95-2.31-71.64-.28-11.05.99-25.4,13.02-25.4,24.49v67.37h16.96v-46.41c0-8.52,14.97-8.62,14.97-2v48.41h55.87v-48.41c0-2.32,5.22-5.05,7.48-5.05,2.53,0,7.48,3.95,7.48,6.04v47.41h16.96ZM268.39,223.56v-35.43c0-1.95-3.58-4.11-5.55-4.43-14.36-2.3-34.62,1.28-49.86-.03-16.02-1.37-21.06-19.14-32.39-27.98v19.46c0,.31-2.85,4.69-3.33,5.15-7,6.69-18.71-.98-23.4,8.03l.32,48.18c1.41,1.54,2.77,3.57,4.99,3.99,8.3,1.58,20.93-1.16,29.76.07,2.49-5.97,5.78-11.32,11.72-14.42.85-.45,6.04-2.59,6.39-2.59h61.36ZM291.34,323.37v-15.47c0-.53,1.5-5.23,1.92-6.06,5.32-10.59,22.65-2.61,24.81-10.12-.88-14.69,1.91-32.39.23-46.71-.43-3.69-1.23-5.14-4.94-6.04l-105.57.32c-3.09,1.32-3.9,4.67-4.24,7.73-1.06,9.37-.91,30.42-.05,39.97.37,4.11,1.1,7.71,5.6,8.34,16.2,2.28,43.47-3.49,57.86,2.04,8.92,3.43,16.54,19.97,24.39,26ZM125.07,376.91c30.7,30.71,76.53-18.85,42.56-47.07-30.77-25.56-70.6,19.02-42.56,47.07ZM385.77,331.7c-27.36-27.37-71.82,10.71-47.52,42.04,27.5,35.45,78.64-10.9,47.52-42.04ZM190.57,493.03h15.46c1.42-.88,1.38-1.99,1.55-3.44,1.55-13.21,1.39-49.53-.16-62.82s-12.18-24.13-25.33-25.56c-21.89-2.38-48.23,1.58-70.58.27-9.49.43-23.71,14-23.71,23.19v68.37h16.96v-47.41c0-4.42,8.11-7.04,12.28-4.55.23.14,2.69,3.33,2.69,3.55v48.41h55.87v-48.41c0-5.88,14.97-6.61,14.97,2v46.41ZM423.04,493.03v-68.37c0-9.19-14.22-22.76-23.71-23.19-22.35,1.31-48.69-2.65-70.58-.27-13.15,1.43-23.81,12.53-25.33,25.56-1.55,13.29-1.71,49.61-.16,62.82.17,1.45.12,2.57,1.55,3.44h15.46v-46.41c0-8.6,14.97-7.88,14.97-2v48.41h55.87v-48.41c0-.22,2.46-3.41,2.69-3.55,4.17-2.5,12.28.12,12.28,4.55v47.41h16.96ZM72.83,437.14H18.46c-.5,0-2.1-1.57-3.49-1v17.47c0,.41,3.34,4.49,4.49,4.49h53.38v-20.96ZM495.87,436.14c-1.4-.58-2.99,1-3.49,1h-54.38v20.96h53.38c1.15,0,4.49-4.08,4.49-4.49v-17.47Z"/>
    </g>
  </g>
</svg>