<?xml version="1.0" encoding="UTF-8"?>
<svg id="Layer_2" data-name="Layer 2" xmlns="http://www.w3.org/2000/svg" viewBox="0 0 339.28 311.16">
  <defs>
    <style>
      .cls-1 {
        fill: #0c4aa9;
      }

      .cls-2 {
        fill: #df5e27;
      }
    </style>
  </defs>
  <g id="Layer_2-2" data-name="Layer 2">
    <g id="exgEE8.tif">
      <g>
        <path class="cls-1" d="M0,146.1v-8.46c6.3-27.13,46.29-22.65,45.19,5.32-1.04,26.45-39.39,28.99-45.19,3.14ZM20.28,130.75c-13.81,2.23-10.97,25.04,4.61,22.24,13.53-2.43,11.25-24.8-4.61-22.24Z"/>
        <path class="cls-2" d="M265.33,23.36c12.93.71,35.79-4.67,39.2,13.37,1.24,6.58,1.17,32.88.26,39.83-.78,5.97-5.75,11.47-11.27,13.55-.89,6.19,4.07,27.75-8.23,22.99l-32.62-21.7c-13.8-1.54-33.46,4.62-37.44-13.73-.81-.15-1.37.08-2.09.37-5.24,2.11-14.09,11.22-19.04,12.71-11.91,3.59-6.74-16.98-7.75-23.22-5.87-2.27-10.65-7.8-11.34-14.19-.87-8.07-.97-30.13.06-38.04.95-7.22,7.93-13.75,15.11-14.53,18.81,1.93,43.07-2.64,61.23.17,10.31,1.59,15.53,12.76,13.93,22.41h-.01ZM254.05,23.36c.03-4.58,1.09-10.1-4.63-11.24-18.39,1.19-39.04-1.72-57.15-.08-3.61.33-5.54,1.51-5.98,5.31-.76,6.51-.92,29.03.06,35.24,1.03,6.56,11.25,3.53,11.25,8.51v13.76l16.59-11.28c2.18-12.15-4.2-28.04,7.07-36.67,1.23-.94,5.86-3.55,7.04-3.55h25.76,0ZM254.05,34.64h-24.35c-.83,0-3.88,3.05-3.88,3.88v18.69h24.35c.83,0,3.88-3.05,3.88-3.88v-18.69ZM282.27,97.42v-13.76c0-4.98,10.22-1.95,11.25-8.51.87-5.53.87-30.35,0-35.89-.25-1.58-2.37-4.63-3.84-4.63h-24.35v20.1c0,.99-2.43,5.51-3.24,6.64-8.51,11.91-23.76,4.95-35.87,7.74-.9,2.95-.96,7.66,1.72,9.59,4.18,3,22.28-.28,28.24,1.4l26.08,17.31h.01Z"/>
        <path class="cls-2" d="M28.22,85.43c-7.93.27-15.86-6.79-16.87-14.52s-.99-31.13,0-38.68c.95-7.22,7.93-13.75,15.11-14.53,22.66,1.81,49.08-2.41,71.28,0,7.64.83,14.35,7.52,15.17,15.17.91,8.42.91,28.98,0,37.4-2.31,21.4-29.48,13.56-43.79,15.48-10.34,5.01-22.18,17.05-32.18,21.43-12.58,5.51-7.89-15.33-8.72-21.75ZM39.52,91.78l26.61-17.49c9.6-1.1,20.81.95,30.21-.13,3.24-.37,4.91-2.03,5.29-5.29.9-7.73.74-26,.02-33.91-.32-3.54-1.46-5.53-5.31-5.98-21.84,1.52-46.27-1.97-67.8-.02-3.64.33-5.54,1.54-5.98,5.31-1.3,11.07.74,25.03.33,36.38,2.38,5.89,9.26,2.14,13.62,4.02.89.38,3,2.64,3,3.35v13.76h0Z"/>
        <path class="cls-1" d="M312.45,119.47c30.86-4.48,35.66,41.45,6.8,44.88-30.14,3.58-34.85-40.81-6.8-44.88ZM313.85,130.75c-13.81,2.23-10.97,25.04,4.61,22.24,13.53-2.43,11.25-24.8-4.61-22.24Z"/>
        <path class="cls-1" d="M165.67,108.19c30.99-4.5,35.52,41.61,6.8,44.88-30.16,3.43-34.82-40.81-6.8-44.88ZM167.06,119.46c-13.81,2.23-10.97,25.04,4.61,22.24,13.53-2.43,11.25-24.8-4.61-22.24Z"/>
        <path class="cls-1" d="M333.08,249.08c0-.39,4.82.38,5.6-4.63-1.22-18.84,1.76-39.98.07-58.54-.94-10.32-10.33-17.44-20.53-15.52-5.66,1.06-8.16,4.67-12.44,7.32-4.18,2.59-21.66,13.98-24.75,14.76-5.79,1.46-20.74-1.63-24.87,1.24-.53.37-2.13,2.42-2.13,2.81v13.05h-12l-5.28-30.34c-2.19-5.59-10.6-4.4-11,1.79l4.28,28.55h-16.23c-3.24-11.24-.73-31.15-9.87-39.16-2.27-1.99-19.03-10.93-21.69-11.47-4.04-.83-19.35-.64-23.87-.19-3.11.31-18.68,7.94-21.72,10.03-11.51,7.87-8.27,28.6-11.76,40.8h-16.23l4.28-28.55c-.39-6.19-8.8-7.38-11-1.79l-5.28,30.34h-12v-13.05c0-.39-1.6-2.44-2.13-2.81-4.12-2.87-19.08.22-24.87-1.24-3.09-.78-20.57-12.18-24.75-14.76-2.36-1.46-4.6-4.06-7.3-5.4-11.39-5.65-21.47-.18-25.61,11.16v73.36c1.53,2.4,3.11,3.06,5.69,3.96l-.04,39.08H0v11.28h338.73v-11.29h-5.65v-50.79h0ZM16.94,299.87v-35.27c5.98,2,12.41,3.46,17.97,6.38l8.14,28.89s-26.11,0-26.11,0ZM67.75,266.01l-7.04-20.83-26.83-15.86v-16.22c2.68.6,13.71,7.76,15.17,7.76h18.7v45.15ZM73.39,209.58h-21.52c-1.82,0-17.56-9.89-21.5-10.96-4.14-1.12-7.29.65-7.8,4.94-.65,5.57-.78,24.27.06,29.6.23,1.47.9,2.66,2.11,3.54l27.11,16.64,13.79,46.53h-10.59l-11.27-37.76-32.16-11.59v-65.67c4.91-7.69,9.06-1.57,13.56,1.32,3.49,2.24,27.79,17.76,29.51,17.76h18.7v5.64h0ZM142.06,178.76c.71-.65,16.19-8.31,17.23-8.52,3.31-.68,14.57-.55,18.22-.19,3.32.33,18.91,7.9,20.37,10.67l4.64,28.87h-10.59v-24.34c0-2.33-3.95-3.73-5.96-3.91-10.96-.99-23.44.77-34.57.08-1.51-.18-4.63,2.72-4.63,3.84v24.34h-10.59c2.09-5.69,2.2-27.46,5.86-30.82l.02-.02ZM90.33,299.87h-11.29v-56.43h11.29v56.43ZM101.62,299.87v-56.43h33.87c-1,9.73,7.27,13.97,11.85,20.96l4.38,35.48h-50.1ZM180.98,258.22l-5.66,41.68-12.3-.03-5.27-41.64c-1.63-4.71-11.59-8.64-10.97-14.78h45.16c2.69,2.68-10.1,12.01-10.97,14.78h.01ZM237.11,299.87h-50.1l4.38-35.48c4.58-6.99,12.85-11.22,11.85-20.96h33.87v56.43h0ZM259.69,299.87h-11.29v-56.43h11.29v56.43ZM259.69,232.15H79.04v-11.29h180.66v11.29h-.01ZM270.98,299.87v-22.57l12.7,22.57h-12.7ZM321.79,299.87h-12.7l-8.51-36.21,21.22-8.94v45.15h0ZM289.31,256.47l-1.26,2.3,9.74,41.1-24.74-43.33,42.02-26.51c.78-.93.95-1.98,1.09-3.14.54-4.64.64-19.52-.06-23.96-.57-3.62-3.75-5.16-7.2-4.48-4.23.84-19.86,11.14-22.04,11.14h-21.52v-5.64c5.32-.8,13.82,1.08,18.7,0,2.08-.46,25.74-15.34,29.51-17.76,4.37-2.81,8.18-8.73,13.35-1.81l.42,55.44-38.01,16.67v-.02ZM270.98,244.15v-23.28h18.7c1.46,0,12.49-7.16,15.17-7.76v10.23l-33.87,20.81h0Z"/>
        <rect class="cls-1" x="79.04" y="45.93" width="11.29" height="11.29"/>
        <rect class="cls-1" x="56.45" y="45.93" width="11.29" height="11.29"/>
        <rect class="cls-1" x="33.87" y="45.93" width="11.29" height="11.29"/>
      </g>
    </g>
  </g>
</svg>